<svg width="757" height="163" viewBox="0 0 757 163" fill="none" xmlns="http://www.w3.org/2000/svg">
<path d="M180.8 9.90078L203.3 80.9008H204.2L226.8 9.90078H248.6L216.5 103.301H191.1L159 9.90078H180.8ZM274.3 9.90078V103.301H254.6V9.90078H274.3ZM347.1 40.1008C346.5 37.9008 345.6 35.9008 344.4 34.2008C343.2 32.5008 341.8 31.0008 340.2 29.8008C338.6 28.6008 336.7 27.7008 334.6 27.0008C332.5 26.4008 330.2 26.0008 327.6 26.0008C322.8 26.0008 318.7 27.2008 315 29.6008C311.4 32.0008 308.6 35.4008 306.6 40.0008C304.6 44.5008 303.6 50.0008 303.6 56.5008C303.6 63.0008 304.6 68.5008 306.6 73.1008C308.6 77.7008 311.4 81.1008 315 83.5008C318.6 85.9008 322.9 87.1008 327.8 87.1008C332.2 87.1008 336.1 86.3008 339.2 84.7008C342.4 83.1008 344.8 80.8008 346.5 77.9008C348.2 75.0008 349 71.5008 349 67.5008L353 68.1008H329V53.4008H368V65.2008C368 73.4008 366.3 80.5008 362.8 86.4008C359.4 92.3008 354.6 96.8008 348.5 100.001C342.4 103.201 335.5 104.701 327.7 104.701C319 104.701 311.3 102.801 304.7 98.9008C298.1 95.0008 292.9 89.5008 289.2 82.3008C285.5 75.1008 283.7 66.6008 283.7 56.8008C283.7 49.2008 284.8 42.5008 287 36.6008C289.2 30.6008 292.3 25.6008 296.3 21.5008C300.3 17.4008 304.9 14.2008 310.2 12.1008C315.5 9.90078 321.2 8.90078 327.3 8.90078C332.6 8.90078 337.5 9.70078 342 11.2008C346.5 12.7008 350.6 14.9008 354.1 17.7008C357.6 20.5008 360.5 23.8008 362.8 27.7008C365 31.5008 366.5 35.8008 367.1 40.4008L347.1 40.1008ZM455.5 9.90078V103.301H438.5L398 44.5008H397.3V103.301H377.6V9.90078H394.9L435.1 68.7008H435.9V9.90078H455.5ZM482.7 103.301H461.6L493.7 9.90078H519.1L551.2 103.301H530.1L506.8 31.2008H506.1L482.7 103.301ZM481.4 66.6008H531.2V82.0008H481.4V66.6008ZM635.2 9.90078V103.301H618.2L577.7 44.5008H577V103.301H557.3V9.90078H574.6L614.8 68.7008H615.6V9.90078H635.2ZM720.8 36.8008C720.4 33.1008 718.9 30.3008 716.1 28.2008C713.3 26.1008 709.6 25.1008 704.9 25.1008C701.7 25.1008 699 25.6008 696.8 26.5008C694.6 27.4008 692.9 28.6008 691.7 30.2008C690.6 31.8008 690 33.6008 690 35.6008C689.9 37.3008 690.3 38.7008 691 40.0008C691.8 41.2008 692.9 42.3008 694.2 43.2008C695.6 44.1008 697.1 44.9008 698.9 45.5008C700.7 46.1008 702.6 46.7008 704.6 47.1008L713 49.1008C717.1 50.0008 720.8 51.2008 724.2 52.8008C727.6 54.3008 730.5 56.2008 733 58.4008C735.5 60.6008 737.4 63.2008 738.8 66.2008C740.2 69.2008 740.9 72.7008 740.9 76.6008C740.9 82.3008 739.4 87.3008 736.5 91.5008C733.6 95.7008 729.5 98.9008 724.1 101.201C718.7 103.501 712.3 104.601 704.7 104.601C697.1 104.601 690.6 103.401 685.1 101.101C679.6 98.8008 675.2 95.4008 672.1 90.8008C669 86.2008 667.4 80.6008 667.2 73.9008H686.2C686.4 77.0008 687.3 79.6008 688.9 81.7008C690.5 83.8008 692.6 85.3008 695.3 86.4008C698 87.4008 701 88.0008 704.4 88.0008C707.8 88.0008 710.6 87.5008 713.1 86.5008C715.6 85.5008 717.5 84.2008 718.9 82.4008C720.3 80.7008 720.9 78.7008 720.9 76.4008C720.9 74.3008 720.3 72.5008 719 71.1008C717.8 69.7008 716 68.5008 713.6 67.4008C711.3 66.4008 708.4 65.5008 705 64.7008L694.9 62.1008C687 60.2008 680.8 57.2008 676.3 53.1008C671.7 49.0008 669.5 43.5008 669.5 36.6008C669.5 30.9008 671 26.0008 674 21.8008C677.1 17.6008 681.3 14.3008 686.6 11.9008C691.9 9.50078 698 8.30078 704.8 8.30078C711.6 8.30078 717.7 9.50078 722.9 11.9008C728.1 14.3008 732.1 17.6008 735 21.8008C737.9 26.0008 739.4 30.9008 739.4 36.5008L720.8 36.8008Z" fill="#FF0000"/>
<path d="M640.301 40.7C648.801 39.9 652.701 35.9 652.101 28.8H644.701V9.5H664.001V25.8C664.001 41.7 656.101 48.2 641.801 48.3L640.301 40.7Z" fill="#FF0000"/>
<path d="M726.301 140.101V124.801H729.501V131.101H736.101V124.801H739.301V140.101H736.101V133.801H729.501V140.101H726.301Z" fill="#010101"/>
<path d="M723.899 130.2H720.599C720.499 129.8 720.399 129.4 720.199 129.1C719.999 128.8 719.799 128.5 719.499 128.2C719.199 128 718.899 127.8 718.499 127.7C718.099 127.6 717.699 127.5 717.299 127.5C716.499 127.5 715.799 127.7 715.199 128.1C714.599 128.5 714.199 129.1 713.799 129.8C713.499 130.5 713.299 131.4 713.299 132.5C713.299 133.6 713.499 134.5 713.799 135.2C714.099 135.9 714.599 136.5 715.199 136.9C715.799 137.3 716.499 137.5 717.199 137.5C717.599 137.5 717.999 137.4 718.399 137.3C718.799 137.2 719.099 137 719.399 136.8C719.699 136.6 719.899 136.3 720.099 136C720.299 135.7 720.399 135.3 720.499 134.9H723.799C723.699 135.6 723.499 136.3 723.199 136.9C722.899 137.5 722.399 138.1 721.899 138.6C721.299 139.1 720.699 139.5 719.899 139.8C719.099 140.1 718.199 140.2 717.299 140.2C715.899 140.2 714.699 139.9 713.599 139.3C712.499 138.7 711.699 137.8 711.099 136.6C710.499 135.4 710.199 134 710.199 132.4C710.199 130.7 710.499 129.3 711.099 128.1C711.699 126.9 712.599 126 713.699 125.4C714.799 124.8 715.999 124.5 717.299 124.5C718.199 124.5 718.999 124.6 719.799 124.9C720.599 125.1 721.199 125.5 721.799 126C722.399 126.5 722.899 127.1 723.199 127.7C723.599 128.5 723.799 129.3 723.899 130.2Z" fill="#010101"/>
<path d="M696.699 140.101V124.801H702.699C703.899 124.801 704.799 125.001 705.699 125.401C706.499 125.801 707.099 126.401 707.599 127.101C707.999 127.801 708.199 128.701 708.199 129.701C708.199 130.701 707.999 131.601 707.499 132.301C707.099 133.001 706.399 133.601 705.599 134.001C704.799 134.401 703.799 134.601 702.599 134.601H698.599V132.001H702.099C702.699 132.001 703.199 131.901 703.599 131.701C703.999 131.501 704.299 131.301 704.499 130.901C704.699 130.601 704.799 130.101 704.799 129.601C704.799 129.101 704.699 128.701 704.499 128.301C704.299 128.001 703.999 127.701 703.599 127.501C703.199 127.301 702.699 127.201 702.099 127.201H699.899V139.801H696.699V140.101ZM704.899 133.201L708.699 140.201H705.099L701.399 133.201H704.899Z" fill="#010101"/>
<path d="M683.602 140.101H680.102L685.402 124.801H689.602L694.902 140.101H691.402L687.602 128.301H687.502L683.602 140.101ZM683.402 134.101H691.602V136.601H683.402V134.101Z" fill="#010101"/>
<path d="M668.102 140.101V124.801H678.402V127.501H671.302V131.101H677.802V133.801H671.302V137.401H678.402V140.101H668.102Z" fill="#010101"/>
<path d="M662.598 129.202C662.498 128.602 662.298 128.102 661.798 127.802C661.298 127.502 660.698 127.302 659.998 127.302C659.498 127.302 658.998 127.402 658.698 127.502C658.298 127.602 658.098 127.802 657.898 128.102C657.698 128.402 657.598 128.702 657.598 129.002C657.598 129.302 657.598 129.502 657.798 129.702C657.898 129.902 658.098 130.102 658.298 130.202C658.498 130.302 658.798 130.502 659.098 130.602C659.398 130.702 659.698 130.802 659.998 130.902L661.398 131.202C662.098 131.302 662.698 131.502 663.198 131.802C663.798 132.002 664.198 132.402 664.598 132.702C664.998 133.102 665.298 133.502 665.498 134.002C665.698 134.502 665.798 135.102 665.898 135.702C665.898 136.602 665.698 137.402 665.198 138.102C664.698 138.802 664.098 139.302 663.198 139.702C662.298 140.102 661.298 140.302 659.998 140.302C658.798 140.302 657.698 140.102 656.798 139.702C655.898 139.302 655.198 138.802 654.698 138.002C654.198 137.302 653.898 136.302 653.898 135.202H656.998C656.998 135.702 657.198 136.102 657.398 136.502C657.698 136.802 657.998 137.102 658.498 137.302C658.898 137.502 659.398 137.602 659.998 137.602C660.498 137.602 660.998 137.502 661.398 137.402C661.798 137.202 662.098 137.002 662.298 136.702C662.498 136.402 662.598 136.102 662.598 135.702C662.598 135.402 662.498 135.102 662.298 134.802C662.098 134.602 661.798 134.402 661.398 134.202C660.998 134.002 660.498 133.902 659.998 133.802L658.298 133.402C656.998 133.102 655.998 132.602 655.298 131.902C654.598 131.202 654.198 130.302 654.198 129.202C654.198 128.302 654.398 127.502 654.898 126.802C655.398 126.102 656.098 125.602 656.998 125.202C657.898 124.802 658.898 124.602 659.998 124.602C661.098 124.602 662.098 124.802 662.998 125.202C663.898 125.602 664.498 126.102 664.998 126.802C665.498 127.502 665.698 128.302 665.698 129.202H662.598Z" fill="#010101"/>
<path d="M641.5 140.101V124.801H651.8V127.501H644.7V131.101H651.2V133.801H644.7V137.401H651.8V140.101H641.5Z" fill="#010101"/>
<path d="M627.699 140.101V124.801H633.699C634.899 124.801 635.799 125.001 636.699 125.401C637.499 125.801 638.099 126.401 638.599 127.101C638.999 127.801 639.199 128.701 639.199 129.701C639.199 130.701 638.999 131.601 638.499 132.301C638.099 133.001 637.399 133.601 636.599 134.001C635.799 134.401 634.799 134.601 633.599 134.601H629.599V132.001H633.099C633.699 132.001 634.199 131.901 634.599 131.701C634.999 131.501 635.299 131.301 635.499 130.901C635.699 130.601 635.799 130.101 635.799 129.601C635.799 129.101 635.699 128.701 635.499 128.301C635.299 128.001 634.999 127.701 634.599 127.501C634.199 127.301 633.699 127.201 633.099 127.201H630.999V139.801H627.699V140.101ZM635.999 133.201L639.799 140.201H636.199L632.499 133.201H635.999Z" fill="#010101"/>
<path d="M613.299 140.401C612.199 140.401 611.299 140.201 610.599 139.801C609.799 139.401 609.199 138.901 608.799 138.301C608.399 137.601 608.199 136.901 608.199 136.101C608.199 135.501 608.299 135.001 608.599 134.501C608.799 134.001 609.199 133.601 609.599 133.201C609.999 132.801 610.499 132.401 611.099 132.001L614.099 130.101C614.499 129.901 614.799 129.601 614.899 129.301C615.099 129.001 615.199 128.701 615.199 128.401C615.199 128.101 615.099 127.801 614.799 127.601C614.599 127.301 614.199 127.201 613.799 127.201C613.499 127.201 613.199 127.301 612.999 127.401C612.799 127.501 612.599 127.701 612.499 127.901C612.399 128.101 612.299 128.301 612.299 128.601C612.299 128.901 612.399 129.201 612.599 129.601C612.799 129.901 612.999 130.301 613.299 130.601C613.599 131.001 613.899 131.401 614.299 131.801L621.499 140.101H618.199L612.199 133.401C611.799 132.901 611.399 132.501 610.999 132.001C610.599 131.501 610.299 131.001 609.999 130.401C609.699 129.801 609.599 129.201 609.599 128.601C609.599 127.901 609.799 127.201 610.099 126.601C610.399 126.001 610.899 125.501 611.599 125.201C612.199 124.901 612.999 124.701 613.799 124.701C614.599 124.701 615.299 124.901 615.899 125.201C616.499 125.501 616.999 126.001 617.299 126.501C617.599 127.001 617.799 127.601 617.799 128.301C617.799 129.001 617.599 129.701 617.299 130.301C616.899 130.901 616.399 131.401 615.799 131.901L612.699 134.101C612.299 134.401 611.999 134.701 611.799 135.001C611.599 135.301 611.499 135.601 611.499 135.901C611.499 136.301 611.599 136.601 611.799 136.901C611.999 137.201 612.199 137.401 612.599 137.601C612.899 137.801 613.299 137.801 613.799 137.801C614.299 137.801 614.899 137.701 615.399 137.401C615.899 137.201 616.399 136.801 616.799 136.301C617.199 135.801 617.599 135.301 617.799 134.701C618.099 134.101 618.199 133.401 618.199 132.601H620.799C620.799 133.501 620.699 134.401 620.499 135.101C620.299 135.801 619.999 136.501 619.599 137.101C619.199 137.701 618.799 138.101 618.399 138.501C618.299 138.601 618.099 138.701 617.999 138.801C617.899 138.901 617.699 139.001 617.599 139.101C616.999 139.601 616.399 139.901 615.699 140.101C614.699 140.201 613.999 140.401 613.299 140.401Z" fill="#010101"/>
<path d="M587.699 124.9H591.299L594.799 131.5H594.899L598.399 124.9H601.999L596.399 134.8V140.2H593.199V134.8L587.699 124.9Z" fill="#010101"/>
<path d="M583.401 129.801C583.301 129.401 583.101 129.101 583.001 128.801C582.801 128.501 582.601 128.301 582.301 128.101C582.001 127.901 581.701 127.701 581.401 127.601C581.101 127.501 580.701 127.401 580.301 127.401C579.501 127.401 578.801 127.601 578.201 128.001C577.601 128.401 577.201 129.001 576.801 129.701C576.501 130.401 576.301 131.301 576.301 132.401C576.301 133.501 576.501 134.401 576.801 135.101C577.101 135.801 577.601 136.401 578.201 136.801C578.801 137.201 579.501 137.401 580.301 137.401C581.001 137.401 581.701 137.301 582.201 137.001C582.701 136.701 583.101 136.401 583.401 135.901C583.701 135.401 583.801 134.901 583.801 134.201L584.501 134.301H580.601V132.001H587.001V133.901C587.001 135.201 586.701 136.401 586.201 137.401C585.601 138.401 584.901 139.101 583.901 139.601C582.901 140.101 581.801 140.401 580.501 140.401C579.101 140.401 577.801 140.101 576.701 139.501C575.601 138.901 574.801 138.001 574.201 136.801C573.601 135.601 573.301 134.201 573.301 132.601C573.301 131.401 573.501 130.301 573.801 129.301C574.201 128.301 574.701 127.501 575.301 126.801C576.001 126.101 576.701 125.601 577.601 125.301C578.501 124.901 579.401 124.801 580.401 124.801C581.301 124.801 582.101 124.901 582.801 125.201C583.501 125.401 584.201 125.801 584.801 126.301C585.401 126.801 585.901 127.301 586.201 127.901C586.601 128.501 586.801 129.201 586.901 130.001H583.401V129.801Z" fill="#010101"/>
<path d="M570.902 132.501C570.902 134.201 570.602 135.601 570.002 136.801C569.402 138.001 568.502 138.901 567.402 139.501C566.302 140.101 565.102 140.401 563.802 140.401C562.402 140.401 561.202 140.101 560.102 139.501C559.002 138.901 558.202 138.001 557.502 136.801C556.902 135.601 556.602 134.201 556.602 132.601C556.602 130.901 556.902 129.501 557.502 128.301C558.102 127.101 559.002 126.201 560.102 125.601C561.202 125.001 562.402 124.701 563.802 124.701C565.102 124.701 566.402 125.001 567.402 125.601C568.502 126.201 569.302 127.101 570.002 128.301C570.602 129.401 570.902 130.801 570.902 132.501ZM567.602 132.501C567.602 131.401 567.402 130.501 567.102 129.801C566.802 129.101 566.302 128.501 565.802 128.101C565.202 127.701 564.502 127.501 563.802 127.501C563.002 127.501 562.302 127.701 561.802 128.101C561.202 128.501 560.802 129.001 560.402 129.801C560.102 130.501 559.902 131.501 559.902 132.501C559.902 133.601 560.102 134.501 560.402 135.201C560.702 135.901 561.202 136.501 561.802 136.901C562.402 137.301 563.102 137.501 563.802 137.501C564.602 137.501 565.302 137.301 565.802 136.901C566.402 136.501 566.802 136.001 567.102 135.201C567.502 134.501 567.602 133.601 567.602 132.501Z" fill="#010101"/>
<path d="M545.5 140.101V124.801H548.7V137.401H555.2V140.101H545.5Z" fill="#010101"/>
<path d="M543.101 132.501C543.101 134.201 542.801 135.601 542.201 136.801C541.601 138.001 540.701 138.901 539.601 139.501C538.501 140.101 537.301 140.401 536.001 140.401C534.601 140.401 533.401 140.101 532.301 139.501C531.201 138.901 530.401 138.001 529.701 136.801C529.101 135.601 528.801 134.201 528.801 132.601C528.801 130.901 529.101 129.501 529.701 128.301C530.301 127.101 531.201 126.201 532.301 125.601C533.401 125.001 534.601 124.701 536.001 124.701C537.301 124.701 538.601 125.001 539.601 125.601C540.701 126.201 541.501 127.101 542.201 128.301C542.801 129.401 543.101 130.801 543.101 132.501ZM539.901 132.501C539.901 131.401 539.701 130.501 539.401 129.801C539.101 129.101 538.601 128.501 538.101 128.101C537.501 127.701 536.801 127.501 536.101 127.501C535.301 127.501 534.601 127.701 534.101 128.101C533.501 128.501 533.101 129.001 532.701 129.801C532.401 130.501 532.201 131.501 532.201 132.501C532.201 133.601 532.401 134.501 532.701 135.201C533.001 135.901 533.501 136.501 534.101 136.901C534.701 137.301 535.401 137.501 536.101 137.501C536.901 137.501 537.601 137.301 538.101 136.901C538.701 136.501 539.101 136.001 539.401 135.201C539.701 134.501 539.901 133.601 539.901 132.501Z" fill="#010101"/>
<path d="M526.399 124.9V140.2H523.599L516.999 130.6H516.899V140.2H513.699V124.9H516.499L523.099 134.5H523.199V124.9H526.399Z" fill="#010101"/>
<path d="M498 140.101V124.801H501.2V131.101H507.8V124.801H511V140.101H507.8V133.801H501.2V140.101H498Z" fill="#010101"/>
<path d="M495.7 130.2H492.4C492.3 129.8 492.2 129.4 492 129.1C491.8 128.8 491.6 128.5 491.3 128.2C491 128 490.7 127.8 490.3 127.7C489.9 127.6 489.5 127.5 489.1 127.5C488.3 127.5 487.6 127.7 487 128.1C486.4 128.5 486 129.1 485.6 129.8C485.3 130.5 485.1 131.4 485.1 132.5C485.1 133.6 485.3 134.5 485.6 135.2C485.9 135.9 486.4 136.5 487 136.9C487.6 137.3 488.3 137.5 489 137.5C489.4 137.5 489.8 137.4 490.2 137.3C490.6 137.2 490.9 137 491.2 136.8C491.5 136.6 491.7 136.3 491.9 136C492.1 135.7 492.2 135.3 492.3 134.9H495.6C495.5 135.6 495.3 136.3 495 136.9C494.7 137.5 494.2 138.1 493.7 138.6C493.1 139.1 492.5 139.5 491.7 139.8C490.9 140.1 490 140.2 489.1 140.2C487.7 140.2 486.5 139.9 485.4 139.3C484.3 138.7 483.5 137.8 482.9 136.6C482.3 135.4 482 134 482 132.4C482 130.7 482.3 129.3 482.9 128.1C483.5 126.9 484.4 126 485.4 125.4C486.5 124.8 487.7 124.5 489 124.5C489.9 124.5 490.7 124.6 491.5 124.9C492.3 125.1 492.9 125.5 493.5 126C494.1 126.5 494.6 127.1 494.9 127.7C495.3 128.5 495.6 129.3 495.7 130.2Z" fill="#010101"/>
<path d="M469.301 140.101V124.801H479.601V127.501H472.501V131.101H479.001V133.801H472.501V137.401H479.601V140.101H469.301Z" fill="#010101"/>
<path d="M454.699 127.501V124.801H467.199V127.501H462.499V140.101H459.299V127.501H454.699Z" fill="#010101"/>
<path d="M448.2 138L448.1 138.8C448 139.5 447.9 140.1 447.7 140.8C447.5 141.5 447.3 142.1 447.1 142.6C446.9 143.1 446.7 143.6 446.6 143.9H444.5C444.6 143.6 444.7 143.2 444.8 142.7C444.9 142.2 445.1 141.6 445.2 140.9C445.3 140.2 445.4 139.6 445.4 138.9V138.1H448.2V138Z" fill="#010101"/>
<path d="M432 140.101V124.801H442.3V127.501H435.2V131.101H441.7V133.801H435.2V137.401H442.3V140.101H432Z" fill="#010101"/>
<path d="M429.598 130.2H426.298C426.198 129.8 426.098 129.4 425.898 129.1C425.698 128.8 425.498 128.5 425.198 128.2C424.898 128 424.598 127.8 424.198 127.7C423.798 127.6 423.398 127.5 422.998 127.5C422.198 127.5 421.498 127.7 420.898 128.1C420.298 128.5 419.898 129.1 419.498 129.8C419.198 130.5 418.998 131.4 418.998 132.5C418.998 133.6 419.198 134.5 419.498 135.2C419.798 135.9 420.298 136.5 420.898 136.9C421.498 137.3 422.198 137.5 422.898 137.5C423.298 137.5 423.698 137.4 424.098 137.3C424.498 137.2 424.798 137 425.098 136.8C425.398 136.6 425.598 136.3 425.798 136C425.998 135.7 426.098 135.3 426.198 134.9H429.498C429.398 135.6 429.198 136.3 428.898 136.9C428.598 137.5 428.098 138.1 427.598 138.6C426.998 139.1 426.398 139.5 425.598 139.8C424.798 140.1 423.898 140.2 422.998 140.2C421.598 140.2 420.398 139.9 419.298 139.3C418.198 138.7 417.398 137.8 416.798 136.6C416.198 135.4 415.898 134 415.898 132.4C415.898 130.7 416.198 129.3 416.798 128.1C417.398 126.9 418.298 126 419.298 125.4C420.398 124.8 421.598 124.5 422.898 124.5C423.798 124.5 424.598 124.6 425.398 124.9C426.198 125.1 426.798 125.5 427.398 126C427.998 126.5 428.498 127.1 428.798 127.7C429.298 128.5 429.498 129.3 429.598 130.2Z" fill="#010101"/>
<path d="M413.501 124.9V140.2H410.701L404.101 130.6H404.001V140.2H400.801V124.9H403.601L410.201 134.5H410.301V124.9H413.501Z" fill="#010101"/>
<path d="M387.898 140.101V124.801H398.198V127.501H391.098V131.101H397.598V133.801H391.098V137.401H398.198V140.101H387.898Z" fill="#010101"/>
<path d="M385.2 124.9V140.2H382V124.9H385.2Z" fill="#010101"/>
<path d="M379.698 130.2H376.398C376.298 129.8 376.198 129.4 375.998 129.1C375.798 128.8 375.598 128.5 375.298 128.2C374.998 128 374.698 127.8 374.298 127.7C373.898 127.6 373.498 127.5 373.098 127.5C372.298 127.5 371.598 127.7 370.998 128.1C370.398 128.5 369.998 129.1 369.598 129.8C369.298 130.5 369.098 131.4 369.098 132.5C369.098 133.6 369.298 134.5 369.598 135.2C369.898 135.9 370.398 136.5 370.998 136.9C371.598 137.3 372.298 137.5 372.998 137.5C373.398 137.5 373.798 137.4 374.198 137.3C374.598 137.2 374.898 137 375.198 136.8C375.498 136.6 375.698 136.3 375.898 136C376.098 135.7 376.198 135.3 376.298 134.9H379.598C379.498 135.6 379.298 136.3 378.998 136.9C378.698 137.5 378.198 138.1 377.598 138.6C376.998 139.1 376.398 139.5 375.598 139.8C374.798 140.1 373.898 140.2 372.998 140.2C371.598 140.2 370.398 139.9 369.298 139.3C368.198 138.7 367.398 137.8 366.798 136.6C366.198 135.4 365.898 134 365.898 132.4C365.898 130.7 366.198 129.3 366.798 128.1C367.398 126.9 368.298 126 369.398 125.4C370.498 124.8 371.698 124.5 372.998 124.5C373.898 124.5 374.698 124.6 375.498 124.9C376.298 125.1 376.898 125.5 377.498 126C378.098 126.5 378.598 127.1 378.898 127.7C379.298 128.5 379.598 129.3 379.698 130.2Z" fill="#010101"/>
<path d="M360.7 129.202C360.6 128.602 360.4 128.102 359.9 127.802C359.4 127.502 358.8 127.302 358.1 127.302C357.6 127.302 357.1 127.402 356.8 127.502C356.4 127.602 356.2 127.802 356 128.102C355.8 128.402 355.7 128.702 355.7 129.002C355.7 129.302 355.7 129.502 355.9 129.702C356 129.902 356.2 130.102 356.4 130.202C356.6 130.302 356.9 130.502 357.2 130.602C357.5 130.702 357.8 130.802 358.1 130.902L359.5 131.202C360.2 131.302 360.8 131.502 361.3 131.802C361.9 132.002 362.3 132.402 362.7 132.702C363.1 133.102 363.4 133.502 363.6 134.002C363.8 134.502 363.9 135.102 364 135.702C364 136.602 363.8 137.402 363.3 138.102C362.8 138.802 362.2 139.302 361.3 139.702C360.4 140.102 359.4 140.302 358.1 140.302C356.9 140.302 355.8 140.102 354.9 139.702C354 139.302 353.3 138.802 352.8 138.002C352.3 137.302 352 136.302 352 135.202H355.1C355.1 135.702 355.3 136.102 355.5 136.502C355.8 136.802 356.1 137.102 356.6 137.302C357 137.502 357.5 137.602 358.1 137.602C358.6 137.602 359.1 137.502 359.5 137.402C359.9 137.202 360.2 137.002 360.4 136.702C360.6 136.402 360.7 136.102 360.7 135.702C360.7 135.402 360.6 135.102 360.4 134.802C360.2 134.602 359.9 134.402 359.5 134.202C359.1 134.002 358.6 133.902 358.1 133.802L356.4 133.402C355.1 133.102 354.1 132.602 353.4 131.902C352.7 131.202 352.3 130.302 352.3 129.202C352.3 128.302 352.5 127.502 353 126.802C353.5 126.102 354.2 125.602 355.1 125.202C356 124.802 357 124.602 358.1 124.602C359.2 124.602 360.2 124.802 361.1 125.202C362 125.602 362.6 126.102 363.1 126.802C363.6 127.502 363.8 128.302 363.8 129.202H360.7Z" fill="#010101"/>
<path d="M333.801 140.101V124.801H339.801C341.001 124.801 341.901 125.001 342.801 125.401C343.601 125.801 344.201 126.401 344.701 127.101C345.101 127.801 345.301 128.701 345.301 129.701C345.301 130.701 345.101 131.601 344.601 132.301C344.201 133.001 343.501 133.601 342.701 134.001C341.901 134.401 340.901 134.601 339.701 134.601H335.701V132.001H339.201C339.801 132.001 340.301 131.901 340.701 131.701C341.101 131.501 341.401 131.301 341.601 130.901C341.801 130.601 341.901 130.101 341.901 129.601C341.901 129.101 341.801 128.701 341.601 128.301C341.401 128.001 341.101 127.701 340.701 127.501C340.301 127.301 339.801 127.201 339.201 127.201H337.001V139.801H333.801V140.101ZM342.001 133.201L345.801 140.201H342.201L338.501 133.201H342.001Z" fill="#010101"/>
<path d="M331.402 132.501C331.402 134.201 331.102 135.601 330.502 136.801C329.902 138.001 329.002 138.901 327.902 139.501C326.802 140.101 325.602 140.401 324.302 140.401C322.902 140.401 321.702 140.101 320.602 139.501C319.502 138.901 318.702 138.001 318.002 136.801C317.402 135.601 317.102 134.201 317.102 132.601C317.102 130.901 317.402 129.501 318.002 128.301C318.602 127.101 319.502 126.201 320.602 125.601C321.702 125.001 322.902 124.701 324.302 124.701C325.602 124.701 326.902 125.001 327.902 125.601C329.002 126.201 329.802 127.101 330.502 128.301C331.102 129.401 331.402 130.801 331.402 132.501ZM328.102 132.501C328.102 131.401 327.902 130.501 327.602 129.801C327.302 129.101 326.802 128.501 326.202 128.101C325.602 127.701 324.902 127.501 324.202 127.501C323.402 127.501 322.702 127.701 322.202 128.101C321.602 128.501 321.202 129.001 320.802 129.801C320.502 130.501 320.302 131.501 320.302 132.501C320.302 133.601 320.502 134.501 320.802 135.201C321.102 135.901 321.602 136.501 322.202 136.901C322.802 137.301 323.502 137.501 324.202 137.501C325.002 137.501 325.702 137.301 326.202 136.901C326.802 136.501 327.202 136.001 327.602 135.201C328.002 134.501 328.102 133.601 328.102 132.501Z" fill="#010101"/>
<path d="M305.102 140.101V124.801H315.202V127.501H308.302V131.101H314.502V133.801H308.302V140.101H305.102Z" fill="#010101"/>
<path d="M297.501 124.9V140.2H294.701L288.101 130.6H288.001V140.2H284.801V124.9H287.601L294.201 134.5H294.301V124.9H297.501Z" fill="#010101"/>
<path d="M282.402 132.501C282.402 134.201 282.102 135.601 281.502 136.801C280.902 138.001 280.002 138.901 278.902 139.501C277.802 140.101 276.602 140.401 275.302 140.401C273.902 140.401 272.702 140.101 271.602 139.501C270.502 138.901 269.702 138.001 269.002 136.801C268.402 135.601 268.102 134.201 268.102 132.601C268.102 130.901 268.402 129.501 269.002 128.301C269.602 127.101 270.502 126.201 271.602 125.601C272.702 125.001 273.902 124.701 275.302 124.701C276.602 124.701 277.902 125.001 278.902 125.601C280.002 126.201 280.802 127.101 281.502 128.301C282.102 129.401 282.402 130.801 282.402 132.501ZM279.102 132.501C279.102 131.401 278.902 130.501 278.602 129.801C278.302 129.101 277.802 128.501 277.302 128.101C276.702 127.701 276.002 127.501 275.302 127.501C274.502 127.501 273.802 127.701 273.302 128.101C272.702 128.501 272.302 129.001 271.902 129.801C271.602 130.501 271.402 131.501 271.402 132.501C271.402 133.601 271.602 134.501 271.902 135.201C272.202 135.901 272.702 136.501 273.302 136.901C273.902 137.301 274.602 137.501 275.302 137.501C276.102 137.501 276.802 137.301 277.302 136.901C277.902 136.501 278.302 136.001 278.602 135.201C278.902 134.501 279.102 133.601 279.102 132.501Z" fill="#010101"/>
<path d="M265.7 124.9V140.2H262.5V124.9H265.7Z" fill="#010101"/>
<path d="M247.898 127.501V124.801H260.398V127.501H255.698V140.101H252.498V127.501H247.898Z" fill="#010101"/>
<path d="M237.199 140.101H233.699L238.999 124.801H243.199L248.499 140.101H244.999L241.199 128.301H241.099L237.199 140.101ZM236.999 134.101H245.199V136.601H236.999V134.101Z" fill="#010101"/>
<path d="M225.599 140.101H220.199V124.801H225.699C227.199 124.801 228.599 125.101 229.699 125.701C230.799 126.301 231.699 127.201 232.299 128.301C232.899 129.401 233.199 130.801 233.199 132.401C233.199 134.001 232.899 135.401 232.299 136.501C231.699 137.601 230.799 138.501 229.699 139.101C228.499 139.801 227.099 140.101 225.599 140.101ZM223.399 137.401H225.399C226.399 137.401 227.199 137.201 227.799 136.901C228.499 136.601 228.899 136.001 229.299 135.301C229.599 134.601 229.799 133.701 229.799 132.501C229.799 131.401 229.599 130.401 229.299 129.701C228.999 129.001 228.499 128.501 227.799 128.101C227.099 127.801 226.299 127.601 225.399 127.601H223.299V137.401H223.399Z" fill="#010101"/>
<path d="M217.501 124.9V140.2H214.701L208.101 130.6H208.001V140.2H204.801V124.9H207.601L214.201 134.5H214.301V124.9H217.501Z" fill="#010101"/>
<path d="M198.798 124.9H201.998V134.8C201.998 135.9 201.698 136.9 201.198 137.7C200.698 138.5 199.898 139.2 198.998 139.7C198.098 140.2 196.898 140.4 195.698 140.4C194.398 140.4 193.298 140.2 192.398 139.7C191.498 139.2 190.698 138.6 190.198 137.7C189.698 136.9 189.398 135.9 189.398 134.8V124.9H192.598V134.5C192.598 135.1 192.698 135.6 192.998 136.1C193.298 136.6 193.598 136.9 194.098 137.2C194.598 137.5 195.098 137.6 195.698 137.6C196.298 137.6 196.898 137.5 197.298 137.2C197.798 136.9 198.098 136.6 198.398 136.1C198.698 135.6 198.798 135.1 198.798 134.5V124.9Z" fill="#010101"/>
<path d="M186.999 132.501C186.999 134.201 186.699 135.601 186.099 136.801C185.499 138.001 184.599 138.901 183.499 139.501C182.399 140.101 181.199 140.401 179.899 140.401C178.499 140.401 177.299 140.101 176.199 139.501C175.099 138.901 174.299 138.001 173.599 136.801C172.999 135.601 172.699 134.201 172.699 132.601C172.699 130.901 172.999 129.501 173.599 128.301C174.199 127.101 175.099 126.201 176.199 125.601C177.299 125.001 178.499 124.701 179.899 124.701C181.199 124.701 182.499 125.001 183.499 125.601C184.599 126.201 185.399 127.101 186.099 128.301C186.699 129.401 186.999 130.801 186.999 132.501ZM183.699 132.501C183.699 131.401 183.499 130.501 183.199 129.801C182.899 129.101 182.399 128.501 181.899 128.101C181.299 127.701 180.599 127.501 179.899 127.501C179.099 127.501 178.399 127.701 177.899 128.101C177.299 128.501 176.899 129.001 176.499 129.801C176.199 130.501 175.999 131.501 175.999 132.501C175.999 133.601 176.199 134.501 176.499 135.201C176.799 135.901 177.299 136.501 177.899 136.901C178.499 137.301 179.199 137.501 179.899 137.501C180.699 137.501 181.399 137.301 181.899 136.901C182.499 136.501 182.899 136.001 183.199 135.201C183.599 134.501 183.699 133.601 183.699 132.501Z" fill="#010101"/>
<path d="M160.699 140.101V124.801H170.799V127.501H163.899V131.101H170.099V133.801H163.899V140.101H160.699Z" fill="#010101"/>
<mask id="mask0_1777_489" style="mask-type:luminance" maskUnits="userSpaceOnUse" x="9" y="8" width="128" height="145">
<path d="M137 8.60156H9V152.602H137V8.60156Z" fill="white"/>
</mask>
<g mask="url(#mask0_1777_489)">
<path fill-rule="evenodd" clip-rule="evenodd" d="M85.8016 63.8012C87.4016 66.2012 88.3016 68.9012 88.4016 71.8012L120.802 82.3012C120.102 85.7012 119.002 89.1012 117.502 92.4012L85.1016 81.9012C83.3016 84.2012 81.0016 85.9012 78.3016 86.9012V120.801C74.8016 121.201 71.2016 121.201 67.7016 120.801V86.8012C65.0016 85.8012 62.7016 84.1012 60.9016 81.8012L28.4016 92.4012C26.9016 89.2012 25.8016 85.8012 25.1016 82.3012L57.5016 71.8012C57.6016 68.9012 58.5016 66.2012 60.1016 63.8012L40.1016 36.4012C42.7016 34.0012 45.6016 31.9012 48.7016 30.2012L68.7016 57.6012C71.4016 56.8012 74.4016 56.8012 77.1016 57.6012L97.1016 30.2012C100.202 31.9012 103.102 34.0012 105.702 36.4012L85.8016 63.8012ZM66.9016 81.4012C68.7016 82.6012 70.8016 83.2012 73.0016 83.2012C75.9016 83.2012 78.7016 82.0012 80.7016 80.0012C82.7016 78.0012 83.9016 75.2012 83.9016 72.3012C83.9016 70.1012 83.2016 68.1012 82.1016 66.3012C80.9016 64.5012 79.2016 63.1012 77.2016 62.3012C75.2016 61.5012 73.0016 61.3012 70.9016 61.7012C68.8016 62.1012 66.8016 63.2012 65.3016 64.7012C63.8016 66.2012 62.7016 68.1012 62.3016 70.3012C61.9016 72.4012 62.1016 74.6012 62.9016 76.6012C63.6016 78.6012 65.1016 80.3012 66.9016 81.4012ZM76.9016 73.7012L79.3016 81.2012L73.0016 76.5012L66.6016 81.1012L69.0016 73.6012L62.7016 69.0012H70.6016L73.0016 61.5012L75.4016 69.0012H83.3016L76.9016 73.7012Z" fill="#0082FF"/>
<path fill-rule="evenodd" clip-rule="evenodd" d="M73.0008 50.2012L90.7008 27.0012C79.3008 22.6012 66.7008 22.6012 55.3008 27.0012L73.0008 50.2012Z" fill="#8281FF"/>
<path fill-rule="evenodd" clip-rule="evenodd" d="M51.8016 65.5016L24.2016 75.1016C24.2016 74.2016 24.1016 73.3016 24.1016 72.4016C24.1016 61.2016 28.0016 50.3016 35.1016 41.6016L51.8016 65.5016Z" fill="#8281FF"/>
<path fill-rule="evenodd" clip-rule="evenodd" d="M31.9023 98.7008C38.5023 108.901 48.7023 116.301 60.5023 119.401C60.4023 112.601 60.0023 97.0008 59.9023 90.3008L31.9023 98.7008Z" fill="#8281FF"/>
<path fill-rule="evenodd" clip-rule="evenodd" d="M114.002 98.7012C107.402 108.901 97.2023 116.301 85.4023 119.401C85.4023 116.401 85.5023 111.701 85.7023 106.701C85.8023 100.501 86.0023 94.0012 86.0023 90.2012L114.002 98.7012Z" fill="#8281FF"/>
<path fill-rule="evenodd" clip-rule="evenodd" d="M121.699 75.1016C121.699 74.2016 121.799 73.3016 121.799 72.4016C121.799 61.2016 117.899 50.3016 110.799 41.6016L94.1992 65.5016L121.699 75.1016Z" fill="#8281FF"/>
<path fill-rule="evenodd" clip-rule="evenodd" d="M133.501 8.30078H13.1008H9.30078V12.1008V71.8008C9.30078 84.5008 12.4008 96.9008 18.3008 107.901C24.2008 118.901 32.7008 128.201 43.0008 134.701L68.6008 150.901C70.0008 151.801 71.6008 152.301 73.2008 152.301C74.9008 152.301 76.5008 151.801 77.8008 150.901L103.401 134.701C113.701 128.201 122.201 118.901 128.101 107.901C134.001 96.9008 137.101 84.4008 137.101 71.8008V12.1008V8.30078H133.501ZM130.001 71.5008C130.001 82.9008 127.201 94.2008 121.901 104.101C116.601 114.001 109.001 122.301 99.8008 128.101L74.2008 144.301C74.0008 144.401 73.8008 144.501 73.6008 144.501C73.4008 144.501 73.2008 144.501 73.0008 144.301L47.2008 128.001C38.1008 122.201 30.4008 113.901 25.2008 104.001C19.9008 94.1008 17.1008 82.8008 17.1008 71.4008V15.6008H129.901L130.001 71.5008Z" fill="#8281FF"/>
</g>
</svg>
