<svg width="128" height="144" viewBox="0 0 128 144" fill="none" xmlns="http://www.w3.org/2000/svg">
<mask id="mask0_1777_755" style="mask-type:luminance" maskUnits="userSpaceOnUse" x="0" y="0" width="128" height="144">
<path d="M128 0H0V144H128V0Z" fill="white"/>
</mask>
<g mask="url(#mask0_1777_755)">
<path fill-rule="evenodd" clip-rule="evenodd" d="M76.8016 55.1996C78.4016 57.5996 79.3016 60.2996 79.4016 63.1996L111.802 73.6996C111.102 77.0996 110.002 80.4996 108.502 83.7996L76.1016 73.2996C74.3016 75.5996 72.0016 77.2996 69.3016 78.2996V112.2C65.8016 112.6 62.2016 112.6 58.7016 112.2V78.1996C56.0016 77.1996 53.7016 75.4996 51.9016 73.1996L19.4016 83.7996C17.9016 80.5996 16.8016 77.1996 16.1016 73.6996L48.5016 63.1996C48.6016 60.2996 49.5016 57.5996 51.1016 55.1996L31.1016 27.7996C33.7016 25.3996 36.6016 23.2996 39.7016 21.5996L59.7016 48.9996C62.4016 48.1996 65.4016 48.1996 68.1016 48.9996L88.1016 21.5996C91.2016 23.2996 94.1016 25.3996 96.7016 27.7996L76.8016 55.1996ZM57.9016 72.7996C59.7016 73.9996 61.8016 74.5996 64.0016 74.5996C66.9016 74.5996 69.7016 73.3996 71.7016 71.3996C73.7016 69.3996 74.9016 66.5996 74.9016 63.6996C74.9016 61.4996 74.2016 59.4996 73.1016 57.6996C71.9016 55.8996 70.2016 54.4996 68.2016 53.6996C66.2016 52.8996 64.0016 52.6996 61.9016 53.0996C59.8016 53.4996 57.8016 54.5996 56.3016 56.0996C54.8016 57.5996 53.7016 59.4996 53.3016 61.6996C52.9016 63.7996 53.1016 65.9996 53.9016 67.9996C54.6016 69.9996 56.1016 71.6996 57.9016 72.7996ZM67.9016 65.0996L70.3016 72.5996L64.0016 67.8996L57.6016 72.4996L60.0016 64.9996L53.7016 60.3996H61.6016L64.0016 52.8996L66.4016 60.3996H74.3016L67.9016 65.0996Z" fill="#0082FF"/>
<path fill-rule="evenodd" clip-rule="evenodd" d="M64.0008 41.5996L81.7008 18.3996C70.3008 13.9996 57.7008 13.9996 46.3008 18.3996L64.0008 41.5996Z" fill="#8281FF"/>
<path fill-rule="evenodd" clip-rule="evenodd" d="M42.8016 56.9L15.2016 66.5C15.2016 65.6 15.1016 64.7 15.1016 63.8C15.1016 52.6 19.0016 41.7 26.1016 33L42.8016 56.9Z" fill="#8281FF"/>
<path fill-rule="evenodd" clip-rule="evenodd" d="M22.9023 90.0992C29.5023 100.299 39.7023 107.699 51.5023 110.799C51.4023 103.999 51.0023 88.3992 50.9023 81.6992L22.9023 90.0992Z" fill="#8281FF"/>
<path fill-rule="evenodd" clip-rule="evenodd" d="M105.002 90.0996C98.4023 100.3 88.2023 107.7 76.4023 110.8C76.4023 107.8 76.5023 103.1 76.7023 98.0996C76.8023 91.8996 77.0023 85.3996 77.0023 81.5996L105.002 90.0996Z" fill="#8281FF"/>
<path fill-rule="evenodd" clip-rule="evenodd" d="M112.699 66.5C112.699 65.6 112.799 64.7 112.799 63.8C112.799 52.6 108.899 41.7 101.799 33L85.1992 56.9L112.699 66.5Z" fill="#8281FF"/>
<path fill-rule="evenodd" clip-rule="evenodd" d="M124.501 -0.300781H4.10078H0.300781V3.49922V63.1992C0.300781 75.8992 3.40078 88.2992 9.30078 99.2992C15.2008 110.299 23.7008 119.599 34.0008 126.099L59.6008 142.299C61.0008 143.199 62.6008 143.699 64.2008 143.699C65.9008 143.699 67.5008 143.199 68.8008 142.299L94.4008 126.099C104.701 119.599 113.201 110.299 119.101 99.2992C125.001 88.2992 128.101 75.7992 128.101 63.1992V3.49922V-0.300781H124.501ZM121.001 62.8992C121.001 74.2992 118.201 85.5992 112.901 95.4992C107.601 105.399 100.001 113.699 90.8008 119.499L65.2008 135.699C65.0008 135.799 64.8008 135.899 64.6008 135.899C64.4008 135.899 64.2008 135.899 64.0008 135.699L38.2008 119.399C29.1008 113.599 21.4008 105.299 16.2008 95.3992C10.9008 85.4992 8.10078 74.1992 8.10078 62.7992V6.99922H120.901L121.001 62.8992Z" fill="#8281FF"/>
</g>
</svg>
