<svg width="66" height="58" viewBox="0 0 66 58" fill="none" xmlns="http://www.w3.org/2000/svg">
<path id="&#226;&#128;&#156;" d="M0 28.4002C0 16.8002 3.86667 8.6002 11.6 3.8002C15.2 1.53354 19.1333 0.333535 23.4 0.200195V19.0002C19.5333 19.0002 16.8 20.5335 15.2 23.6002C14.6667 24.9335 14.2667 26.5335 14 28.4002H28.2V56.4002L0 57.6002V28.4002ZM37.4 28.4002C37.4 16.9335 41.3333 8.73353 49.2 3.8002C52.5333 1.66687 56.4667 0.466866 61 0.200195V19.0002C56.8667 19.0002 54.1333 20.5335 52.8 23.6002C52 24.9335 51.6 26.5335 51.6 28.4002H65.6V56.4002L37.4 57.6002V28.4002Z" fill="#992E00"/>
</svg>
