<svg width="49" height="49" viewBox="0 0 49 49" fill="none" xmlns="http://www.w3.org/2000/svg">
<mask id="mask0_3664_510" style="mask-type:alpha" maskUnits="userSpaceOnUse" x="0" y="0" width="49" height="49">
<rect x="0.5" y="0.599976" width="48" height="48" fill="#D9D9D9"/>
</mask>
<g mask="url(#mask0_3664_510)">
<path d="M21.9074 6.59998C13.4164 6.59998 6.5 13.5163 6.5 22.0073C6.5 30.4983 13.4164 37.4147 21.9074 37.4147C25.5997 37.4147 28.9907 36.1035 31.6483 33.927L40.8476 43.1263C40.9896 43.2741 41.1596 43.3922 41.3478 43.4735C41.5359 43.5548 41.7384 43.5978 41.9434 43.5999C42.1484 43.602 42.3517 43.5631 42.5415 43.4857C42.7313 43.4082 42.9037 43.2936 43.0487 43.1487C43.1936 43.0037 43.3082 42.8313 43.3857 42.6415C43.4632 42.4517 43.502 42.2484 43.4999 42.0434C43.4978 41.8384 43.4549 41.6359 43.3735 41.4477C43.2922 41.2596 43.1742 41.0895 43.0263 40.9476L33.827 31.7483C36.0035 29.0907 37.3147 25.6997 37.3147 22.0073C37.3147 13.5163 30.3984 6.59998 21.9074 6.59998ZM21.9074 9.68145C28.733 9.68145 34.2333 15.1817 34.2333 22.0073C34.2333 28.833 28.733 34.3332 21.9074 34.3332C15.0817 34.3332 9.58147 28.833 9.58147 22.0073C9.58147 15.1817 15.0817 9.68145 21.9074 9.68145Z" fill="black"/>
</g>
</svg>
