<svg width="48" height="49" viewBox="0 0 48 49" fill="none" xmlns="http://www.w3.org/2000/svg">
<g id="Icons">
<mask id="mask0_376_12823" style="mask-type:alpha" maskUnits="userSpaceOnUse" x="0" y="0" width="48" height="49">
<rect id="Bounding box" y="0.600098" width="48" height="48" fill="#D9D9D9"/>
</mask>
<g mask="url(#mask0_376_12823)">
<path id="call" d="M38.5819 41.4001C35.094 41.4001 31.4917 40.5103 27.775 38.7309C24.0583 36.9513 20.5897 34.4533 17.3692 31.2366C14.1487 28.0199 11.6487 24.5513 9.86921 20.8308C8.08975 17.1103 7.20001 13.5061 7.20001 10.0182C7.20001 9.3486 7.39863 8.8115 7.79586 8.4069C8.19313 8.00233 8.71886 7.80005 9.37306 7.80005H14.7357C15.3249 7.80005 15.8169 7.97311 16.2117 8.31925C16.6065 8.66541 16.8833 9.12697 17.0423 9.7039L18.1811 14.8898C18.2168 15.3864 18.1737 15.8517 18.052 16.2857C17.9302 16.7197 17.7526 17.0449 17.5194 17.2614L12.8693 21.6654C13.7205 23.1936 14.6551 24.6212 15.6731 25.9482C16.691 27.2751 17.7705 28.518 18.9116 29.677C20.1372 30.9693 21.4468 32.1219 22.8404 33.1347C24.234 34.1475 25.7333 35.1013 27.3385 35.9962L32.0654 31.2577C32.3654 30.9244 32.6754 30.7058 32.9953 30.6019C33.3152 30.4981 33.6796 30.4795 34.0885 30.5462L38.8462 31.6347C39.4085 31.7424 39.8748 32.0171 40.2449 32.459C40.615 32.9008 40.8 33.4067 40.8 33.9769V39.227C40.8 39.8812 40.5977 40.4069 40.1932 40.8042C39.7886 41.2014 39.2515 41.4001 38.5819 41.4001ZM11.8 19.7001L15.8039 15.9923C15.9064 15.8898 15.9769 15.7488 16.0154 15.5693C16.0538 15.3898 16.0602 15.2231 16.0346 15.0693L15.0019 10.6039C14.9762 10.3988 14.8929 10.2449 14.7519 10.1423C14.6109 10.0398 14.4378 9.9885 14.2327 9.9885H10.0269C9.87308 9.9885 9.74488 10.0398 9.64231 10.1423C9.53975 10.2449 9.48846 10.3731 9.48846 10.527C9.4782 11.9347 9.6673 13.3827 10.0558 14.8712C10.4442 16.3597 11.0256 17.9693 11.8 19.7001ZM29.4808 37.0655C30.7808 37.7424 32.2314 38.2552 33.8327 38.6039C35.434 38.9526 36.8474 39.1514 38.0731 39.2001C38.2269 39.2334 38.3551 39.1904 38.4577 39.0712C38.5603 38.952 38.6116 38.8154 38.6116 38.6616V34.3962C38.6116 34.1911 38.5603 34.018 38.4577 33.877C38.3551 33.736 38.2013 33.6526 37.9962 33.627L34.0769 32.7578C33.9231 32.7321 33.7885 32.7385 33.6731 32.777C33.5577 32.8154 33.4359 32.8859 33.3077 32.9885L29.4808 37.0655Z" fill="#C57654"/>
</g>
</g>
</svg>
