<svg width="48" height="49" viewBox="0 0 48 49" fill="none" xmlns="http://www.w3.org/2000/svg">
<g id="Icons">
<mask id="mask0_3284_12010" style="mask-type:alpha" maskUnits="userSpaceOnUse" x="0" y="0" width="48" height="49">
<rect id="Bounding box" y="0.600098" width="48" height="48" fill="#D9D9D9"/>
</mask>
<g mask="url(#mask0_3284_12010)">
<path id="fastfood" d="M28.1142 27.5957C27.3801 25.9222 26.0439 24.6791 24.1055 23.8664C22.1671 23.0537 20.1146 22.6474 17.9479 22.6474C15.7923 22.6474 13.7279 23.0512 11.7546 23.8588C9.78128 24.6664 8.47149 25.9121 7.82524 27.5957H28.1142ZM5 29.924C5 26.8468 6.32546 24.4767 8.97637 22.8136C11.6273 21.1506 14.6148 20.3191 17.9388 20.3191C21.2812 20.3191 24.2733 21.1506 26.9151 22.8136C29.5568 24.4767 30.8777 26.8468 30.8777 29.924H5ZM5 36.699V34.3707H30.8777V36.699H5ZM34.2372 43.6001V41.2717H37.2654L39.9041 14.3955H25.7637L22.3482 12.0672H31.1693V5.6001H33.4976V12.0672H42.454L39.5424 41.7826C39.4691 42.321 39.2313 42.7585 38.8291 43.0951C38.427 43.4318 37.9407 43.6001 37.3704 43.6001L34.2372 43.6001ZM5.97989 43.6001C5.70225 43.6001 5.46952 43.5062 5.2817 43.3184C5.0939 43.1306 5 42.8978 5 42.6202V41.2717H30.8777V42.6259C30.8777 42.9052 30.7878 43.1374 30.6079 43.3225C30.4281 43.5075 30.1914 43.6001 29.8978 43.6001L5.97989 43.6001Z" fill="#1C1B1F"/>
</g>
</g>
</svg>
