<svg width="48" height="49" viewBox="0 0 48 49" fill="none" xmlns="http://www.w3.org/2000/svg">
<g id="Icons">
<mask id="mask0_3284_10677" style="mask-type:alpha" maskUnits="userSpaceOnUse" x="0" y="0" width="48" height="49">
<rect id="Bounding box" y="0.600098" width="48" height="48" fill="#D9D9D9"/>
</mask>
<g mask="url(#mask0_3284_10677)">
<path id="directions_bus" d="M13.4559 43.6001C13.1614 43.6001 12.907 43.5079 12.6926 43.3235C12.4782 43.1391 12.371 42.9144 12.371 42.6496V38.503C11.5702 38.2045 10.8081 37.5282 10.0849 36.474C9.36163 35.4199 9 34.2628 9 33.0028V13.0715C9 10.784 10.198 9.13351 12.594 8.12012C14.9901 7.10677 18.8824 6.6001 24.2711 6.6001C29.6189 6.6001 33.4987 7.11624 35.9106 8.14851C38.3225 9.18082 39.5285 10.8218 39.5285 13.0715V33.0028C39.5285 34.2628 39.1669 35.4199 38.4436 36.474C37.7203 37.5282 36.9583 38.2045 36.1575 38.503V42.6496C36.1575 42.9144 36.0503 43.1391 35.8359 43.3235C35.6215 43.5079 35.3671 43.6001 35.0726 43.6001H34.6468C34.3639 43.6001 34.1094 43.5079 33.8832 43.3235C33.6571 43.1391 33.544 42.9039 33.544 42.618V39.3363H14.9845V42.618C14.9845 42.9039 14.8723 43.1391 14.6479 43.3235C14.4235 43.5079 14.1624 43.6001 13.8644 43.6001H13.4559ZM11.1373 24.2425H37.3912V14.3161H11.1373V24.2425ZM16.6067 34.2554C17.2978 34.2554 17.8788 34.0147 18.3498 33.5332C18.8207 33.0518 19.0562 32.4655 19.0562 31.7743C19.0562 31.0832 18.8155 30.496 18.334 30.0129C17.8526 29.5297 17.2663 29.2882 16.5751 29.2882C15.884 29.2882 15.2968 29.535 14.8137 30.0287C14.3305 30.5223 14.089 31.1147 14.089 31.8059C14.089 32.497 14.3358 33.078 14.8295 33.549C15.3231 34.0199 15.9155 34.2554 16.6067 34.2554ZM31.9534 34.2554C32.6445 34.2554 33.2317 34.0147 33.7148 33.5332C34.198 33.0518 34.4395 32.4655 34.4395 31.7743C34.4395 31.0832 34.1927 30.496 33.699 30.0129C33.2054 29.5297 32.613 29.2882 31.9218 29.2882C31.2307 29.2882 30.6497 29.535 30.1787 30.0287C29.7078 30.5223 29.4723 31.1147 29.4723 31.8059C29.4723 32.497 29.713 33.078 30.1945 33.549C30.6759 34.0199 31.2622 34.2554 31.9534 34.2554ZM11.0751 12.1787H37.302C36.787 11.0496 35.4644 10.1938 33.3343 9.61124C31.2042 9.02866 28.1628 8.73738 24.2101 8.73738C20.1068 8.73738 16.9746 9.0156 14.8134 9.57204C12.6521 10.1284 11.406 10.9973 11.0751 12.1787ZM15.4011 37.199H33.1406C34.3213 37.199 35.3249 36.7531 36.1514 35.8613C36.978 34.9695 37.3912 33.9351 37.3912 32.7582V26.3798H11.1373V32.7658C11.1373 33.9473 11.5505 34.9816 12.3771 35.8686C13.2036 36.7555 14.2116 37.199 15.4011 37.199Z" fill="#1C1B1F"/>
</g>
</g>
</svg>
