<svg width="48" height="49" viewBox="0 0 48 49" fill="none" xmlns="http://www.w3.org/2000/svg">
<g id="Icons">
<mask id="mask0_3284_9755" style="mask-type:alpha" maskUnits="userSpaceOnUse" x="0" y="0" width="48" height="49">
<rect id="Bounding box" y="0.600098" width="48" height="48" fill="#D9D9D9"/>
</mask>
<g mask="url(#mask0_3284_9755)">
<path id="health_and_safety" d="M21.9453 30.6075H25.2377V25.7436H30.1015V22.4512H25.2377V17.5874H21.9453V22.4512H17.0814V25.7436H21.9453V30.6075ZM23.5925 43.6001C19.4081 42.4236 15.9299 39.9189 13.1579 36.0859C10.386 32.2529 9 27.964 9 23.2192V12.0911L23.5915 6.6001L38.183 12.0911V23.1981C38.183 27.9606 36.7973 32.2574 34.0261 36.0886C31.2548 39.9198 27.777 42.4236 23.5925 43.6001ZM23.5915 41.0061C27.0901 39.8512 29.9818 37.617 32.2666 34.3033C34.5513 30.9897 35.6937 27.2935 35.6937 23.2146V13.7895L23.5915 9.25278L11.4893 13.7895V23.2146C11.4893 27.2935 12.6316 30.9897 14.9164 34.3033C17.2011 37.617 20.0928 39.8512 23.5915 41.0061Z" fill="#1C1B1F"/>
</g>
</g>
</svg>
