<svg width="48" height="49" viewBox="0 0 48 49" fill="none" xmlns="http://www.w3.org/2000/svg">
<g id="Icons">
<mask id="mask0_3284_13418" style="mask-type:alpha" maskUnits="userSpaceOnUse" x="0" y="0" width="48" height="49">
<rect id="Bounding box" y="0.600098" width="48" height="48" fill="#D9D9D9"/>
</mask>
<g mask="url(#mask0_3284_13418)">
<path id="savings" d="M31.0247 24.0274C31.5452 24.0274 32.0034 23.8297 32.3992 23.4342C32.7951 23.0388 32.993 22.5841 32.993 22.0703C32.993 21.5563 32.7951 21.0959 32.3992 20.6889C32.0034 20.282 31.5452 20.0785 31.0247 20.0785C30.5041 20.0785 30.0439 20.2795 29.644 20.6814C29.244 21.0834 29.044 21.5461 29.044 22.0697C29.044 22.5837 29.244 23.0385 29.644 23.4341C30.0439 23.8296 30.5041 24.0274 31.0247 24.0274ZM14.7632 19.8422H25.6446V17.4801H14.7632V19.8422ZM9.58955 42.5139C8.59761 38.9501 7.58471 35.4167 6.55085 31.9137C5.51695 28.4107 5 24.7984 5 21.0769C5 18.4282 5.91085 16.1875 7.73254 14.3547C9.55424 12.5219 11.7865 11.6055 14.4294 11.6055H25.2441C26.1303 10.4878 27.1872 9.54075 28.4147 8.76447C29.6423 7.98822 30.9886 7.6001 32.4538 7.6001C32.8013 7.6001 33.1301 7.71627 33.4404 7.94862C33.7506 8.181 33.9058 8.45514 33.9058 8.77103C33.9058 8.89677 33.8936 9.01783 33.8692 9.13422C33.8448 9.25061 33.8249 9.36872 33.8095 9.48855C33.5733 10.0868 33.3867 10.6831 33.2497 11.2775C33.1128 11.8719 32.9853 12.4706 32.8672 13.0737L38.4491 18.615H42V29.852L36.5773 31.639L33.2882 42.5139H25.1105V38.5085H17.834V42.5139H9.58955ZM11.5409 39.9515H15.3384V35.9461H27.5395V39.9515H31.3626L34.4578 29.6979L39.4376 28.0213V21.1774H37.4233L30.609 14.3631C30.5919 13.6801 30.6274 13.0125 30.7155 12.3604C30.8037 11.7082 30.9539 11.0787 31.1662 10.4719C30.229 10.8271 29.4022 11.3263 28.6859 11.9695C27.9695 12.6126 27.361 13.3454 26.8603 14.1679H14.4294C12.5077 14.1679 10.8828 14.8381 9.55465 16.1785C8.22649 17.5188 7.56241 19.1488 7.56241 21.0683C7.56241 24.3303 8.00576 27.5173 8.89246 30.6295C9.77912 33.7417 10.6619 36.849 11.5409 39.9515Z" fill="#1C1B1F"/>
</g>
</g>
</svg>
