<svg width="48" height="49" viewBox="0 0 48 49" fill="none" xmlns="http://www.w3.org/2000/svg">
<g id="Icons">
<mask id="mask0_3284_12021" style="mask-type:alpha" maskUnits="userSpaceOnUse" x="0" y="0" width="48" height="49">
<rect id="Bounding box" y="0.600098" width="48" height="48" fill="#D9D9D9"/>
</mask>
<g mask="url(#mask0_3284_12021)">
<path id="medical_services" d="M8.67707 42.0476C7.66468 42.0476 6.79874 41.6879 6.07924 40.9684C5.35975 40.2489 5 39.383 5 38.3706V16.9397C5 15.9274 5.35975 15.0614 6.07924 14.3419C6.79874 13.6224 7.66468 13.2627 8.67707 13.2627H16.7727V10.2772C16.7727 9.26478 17.1325 8.39884 17.852 7.67934C18.5715 6.95985 19.4374 6.6001 20.4498 6.6001H26.5502C27.5626 6.6001 28.4285 6.95985 29.148 7.67934C29.8675 8.39884 30.2273 9.26478 30.2273 10.2772V13.2627H38.3229C39.3353 13.2627 40.2012 13.6224 40.9208 14.3419C41.6402 15.0614 42 15.9274 42 16.9397V38.3706C42 39.383 41.6402 40.2489 40.9208 40.9684C40.2012 41.6879 39.3353 42.0476 38.3229 42.0476H8.67707ZM8.67707 39.5648H38.3229C38.6214 39.5648 38.8951 39.4404 39.1439 39.1916C39.3927 38.9428 39.5171 38.6691 39.5171 38.3706V16.9397C39.5171 16.6412 39.3927 16.3676 39.1439 16.1187C38.8951 15.87 38.6214 15.7456 38.3229 15.7456H8.67707C8.37852 15.7456 8.10485 15.87 7.85607 16.1187C7.60729 16.3676 7.4829 16.6412 7.4829 16.9397V38.3706C7.4829 38.6691 7.60729 38.9428 7.85607 39.1916C8.10485 39.4404 8.37852 39.5648 8.67707 39.5648ZM19.2557 13.2627H27.7443V10.2772C27.7443 9.97862 27.62 9.70495 27.3712 9.45617C27.1224 9.20739 26.8487 9.083 26.5502 9.083H20.4498C20.1513 9.083 19.8776 9.20739 19.6288 9.45617C19.38 9.70495 19.2557 9.97862 19.2557 10.2772V13.2627ZM22.2747 28.8966V34.7183H24.7576V28.8966H30.5793V26.4137H24.7576V20.592H22.2747V26.4137H16.453V28.8966H22.2747Z" fill="#1C1B1F"/>
</g>
</g>
</svg>
