<svg width="43" height="33" viewBox="0 0 43 33" fill="none" xmlns="http://www.w3.org/2000/svg">
<path d="M19.5231 20.1112L29.5731 10.1381L28.0116 8.58811L19.5192 17.0881L15.2731 12.8381L13.7115 14.3881L19.5231 20.1112ZM0.5 32.7497V30.5612H42.8231V32.7497H0.5ZM6.28075 28.0997C5.35468 28.0997 4.5533 27.7613 3.8766 27.0846C3.1999 26.4079 2.86155 25.6065 2.86155 24.6804V4.01886C2.86155 3.09276 3.1999 2.29136 3.8766 1.61466C4.5533 0.937961 5.35468 0.599609 6.28075 0.599609H37.0424C37.9684 0.599609 38.7698 0.937961 39.4465 1.61466C40.1232 2.29136 40.4616 3.09276 40.4616 4.01886V24.6804C40.4616 25.6065 40.1232 26.4079 39.4465 27.0846C38.7698 27.7613 37.9684 28.0997 37.0424 28.0997H6.28075ZM6.28075 25.9112H37.0424C37.35 25.9112 37.6321 25.783 37.8885 25.5266C38.1449 25.2702 38.2731 24.9881 38.2731 24.6804V4.01886C38.2731 3.71116 38.1449 3.42911 37.8885 3.17271C37.6321 2.91631 37.35 2.78811 37.0424 2.78811H6.28075C5.97308 2.78811 5.69103 2.91631 5.4346 3.17271C5.1782 3.42911 5.05 3.71116 5.05 4.01886V24.6804C5.05 24.9881 5.1782 25.2702 5.4346 25.5266C5.69103 25.783 5.97308 25.9112 6.28075 25.9112Z" fill="#C57654"/>
</svg>
