<svg width="30" height="39" viewBox="0 0 30 39" fill="none" xmlns="http://www.w3.org/2000/svg">
<path d="M14.1807 33.5227H16.3693V27.1073H22.7846V24.9189H16.3693V18.5419H14.1807V24.9189H7.80385V27.1073H14.1807V33.5227ZM3.9192 38.8496C2.97753 38.8496 2.17225 38.5152 1.50335 37.8463C0.83445 37.1774 0.5 36.3721 0.5 35.4304V16.915C0.5 15.9534 0.83445 15.1432 1.50335 14.4842C2.17225 13.8252 2.97753 13.4958 3.9192 13.4958H6.78075V9.11881C6.78075 6.72861 7.6029 4.71119 9.2472 3.06656C10.8915 1.42193 12.8928 0.599609 15.2512 0.599609C17.6095 0.599609 19.6105 1.42193 21.254 3.06656C22.8975 4.71119 23.7193 6.72861 23.7193 9.11881V13.4958H26.5808C27.5225 13.4958 28.3277 13.8252 28.9966 14.4842C29.6655 15.1432 30 15.9534 30 16.915V35.4304C30 36.3721 29.6655 37.1774 28.9966 37.8463C28.3277 38.5152 27.5225 38.8496 26.5808 38.8496H3.9192ZM3.9192 36.6612H26.5808C26.9398 36.6612 27.2346 36.5458 27.4654 36.315C27.6962 36.0842 27.8116 35.7894 27.8116 35.4304V16.915C27.8116 16.556 27.6962 16.2611 27.4654 16.0304C27.2346 15.7996 26.9398 15.6842 26.5808 15.6842H3.9192C3.56023 15.6842 3.26537 15.7996 3.0346 16.0304C2.80383 16.2611 2.68845 16.556 2.68845 16.915V35.4304C2.68845 35.7894 2.80383 36.0842 3.0346 36.315C3.26537 36.5458 3.56023 36.6612 3.9192 36.6612ZM8.96925 13.4958H21.5308V9.11881C21.5308 7.35471 20.9204 5.85856 19.6996 4.63036C18.4787 3.40216 16.9963 2.78806 15.2523 2.78806C13.5082 2.78806 12.025 3.40216 10.8027 4.63036C9.5804 5.85856 8.96925 7.35471 8.96925 9.11881V13.4958Z" fill="#C57654"/>
</svg>
