<svg width="44" height="23" viewBox="0 0 44 23" fill="none" xmlns="http://www.w3.org/2000/svg">
<path d="M11.2582 14.0189C10.5194 14.0189 9.88847 13.76 9.3654 13.2424C8.8423 12.7248 8.58075 12.0966 8.58075 11.3578C8.58075 10.619 8.83957 9.98808 9.3572 9.46501C9.87483 8.94191 10.5031 8.68036 11.2419 8.68036C11.9806 8.68036 12.6115 8.93918 13.1346 9.45681C13.6577 9.97444 13.9193 10.6027 13.9193 11.3415C13.9193 12.0802 13.6604 12.7111 13.1428 13.2342C12.6252 13.7573 11.997 14.0189 11.2582 14.0189ZM11.25 22.0996C8.28077 22.0996 5.74678 21.0503 3.64805 18.9516C1.54935 16.8528 0.5 14.3188 0.5 11.3496C0.5 8.38038 1.54935 5.84639 3.64805 3.74766C5.74678 1.64896 8.28077 0.599609 11.25 0.599609C13.4346 0.599609 15.4148 1.18294 17.1904 2.34961C18.966 3.51628 20.2301 5.09576 20.9827 7.08806H39.4846L43.977 11.5804L37.1461 18.0189L33.5039 15.3073L29.6807 18.0458L26.2539 15.6112H20.9923C20.2718 17.4573 19.0487 19.0003 17.3231 20.24C15.5974 21.4797 13.5731 22.0996 11.25 22.0996ZM11.25 19.9112C13.3013 19.9112 15.0731 19.2656 16.5654 17.9746C18.0577 16.6836 19.0091 15.1663 19.4195 13.4227H27.0154L29.6923 15.3419L33.5539 12.615L37.0384 15.2035L40.8807 11.5189L38.6385 9.27651H19.427C19.0526 7.58934 18.1256 6.08614 16.646 4.76691C15.1664 3.44768 13.3711 2.78806 11.26 2.78806C8.87385 2.78806 6.8487 3.61808 5.1846 5.27811C3.5205 6.93811 2.68845 8.95989 2.68845 11.3435C2.68845 13.7271 3.51907 15.7509 5.1803 17.415C6.8415 19.0791 8.86473 19.9112 11.25 19.9112Z" fill="#C57654"/>
</svg>
