<svg width="753" height="165" viewBox="0 0 753 165" fill="none" xmlns="http://www.w3.org/2000/svg">
<g clip-path="url(#clip0_2281_17889)">
<path fill-rule="evenodd" clip-rule="evenodd" d="M84.9818 61.3245C86.7654 63.9475 87.7621 67.0426 87.8671 70.1901L123.697 81.836C122.91 85.6655 121.703 89.4426 120.077 93.0098L84.2474 81.3639C82.3064 83.8819 79.6834 85.7705 76.6933 86.8721V124.538C72.8113 124.957 68.8244 124.957 64.9425 124.538V86.8721C61.9523 85.7705 59.3818 83.8819 57.3884 81.3639L21.5064 93.0098C19.8802 89.4426 18.6736 85.6655 17.8867 81.836L53.7162 70.1901C53.8211 66.9901 54.8179 63.9475 56.6015 61.3245L34.5162 30.8459C37.4015 28.2229 40.6015 25.8622 44.0113 23.9213L66.149 54.4C69.1916 53.5606 72.4441 53.5606 75.4867 54.4L97.6244 23.9213C101.034 25.8622 104.234 28.1704 107.12 30.8459L84.9818 61.3245ZM64.0507 80.8918C66.0441 82.2032 68.4048 82.9377 70.7654 82.9377H70.8179C74.0179 82.9377 77.113 81.6262 79.3687 79.3704C81.6244 77.1147 82.8834 74.0196 82.9359 70.8196C82.9359 68.4065 82.2015 66.0983 80.89 64.1049C79.5785 62.1114 77.69 60.5377 75.4343 59.6459C73.231 58.7541 70.7654 58.4918 68.4572 58.9639C66.0966 59.436 63.9457 60.5901 62.267 62.2688C60.5884 63.9475 59.4343 66.0983 58.9621 68.459C58.49 70.8196 58.7523 73.2327 59.6441 75.436C60.4834 77.6918 62.0572 79.5803 64.0507 80.8918ZM75.172 72.236L77.8474 80.5245L70.8179 75.3836L63.7884 80.5245L66.4638 72.236L59.4343 67.095H68.1425L70.8179 58.8065L73.4933 67.095H82.2015L75.172 72.236Z" fill="#0082FF"/>
<path fill-rule="evenodd" clip-rule="evenodd" d="M70.8172 46.2164L90.3844 20.4591C77.7943 15.5804 63.8402 15.5804 51.25 20.4591L70.8172 46.2164Z" fill="#6499FF"/>
<path fill-rule="evenodd" clip-rule="evenodd" d="M47.4212 63.2132L16.8901 73.8624C16.8376 72.8657 16.7852 71.8689 16.7852 70.8722C16.7852 58.387 21.0868 46.3214 28.9556 36.6689L47.4212 63.2132Z" fill="#6499FF"/>
<path fill-rule="evenodd" clip-rule="evenodd" d="M25.3867 100.092C32.6785 111.423 44.0097 119.659 57.072 123.121C56.9146 115.515 56.5474 98.2034 56.39 90.8066L25.3867 100.092Z" fill="#6499FF"/>
<path fill-rule="evenodd" clip-rule="evenodd" d="M116.248 100.092C108.956 111.423 97.6248 119.659 84.5625 123.121C84.615 119.764 84.7199 114.518 84.8773 109.062C85.0346 102.138 85.192 94.8984 85.2445 90.7542L116.248 100.092Z" fill="#6499FF"/>
<path fill-rule="evenodd" clip-rule="evenodd" d="M124.744 73.8099C124.797 72.8132 124.849 71.8165 124.849 70.8197C124.849 58.3345 120.548 46.2689 112.679 36.6165L94.2656 63.1607L124.744 73.8099Z" fill="#6499FF"/>
<path fill-rule="evenodd" clip-rule="evenodd" d="M137.759 -0.367188H4.51313H0.316406V3.82953V70.1377C0.316406 84.1967 3.72624 97.9935 10.2312 110.269C16.7361 122.492 26.1787 132.774 37.5623 140.013L65.9426 158.059C67.464 159.056 69.2476 159.58 71.0836 159.58C72.9197 159.58 74.7033 159.056 76.2246 158.059L104.605 140.013C115.989 132.774 125.431 122.492 131.936 110.269C138.441 98.0459 141.903 84.1967 141.903 70.1377V3.82953V-0.367188H137.759ZM133.877 69.823C133.877 82.5181 130.782 95.0033 124.907 106.02C119.031 117.036 110.638 126.216 100.461 132.669L72.0803 150.715C71.8705 150.872 71.6607 150.925 71.3984 150.925C71.1361 150.925 70.9787 150.872 70.7164 150.715L42.3361 132.669C32.2115 126.216 23.7656 117.036 17.9426 106.02C12.0672 95.0033 8.97214 82.5181 8.97214 69.823V7.7115H133.825V69.823H133.877Z" fill="#6499FF"/>
</g>
<g clip-path="url(#clip1_2281_17889)">
<path d="M161.641 120H752.641" stroke="#010101" stroke-width="1.5"/>
<path d="M170.651 160.5V145.23H180.431V147.55H173.411V151.7H179.761V154.02H173.411V160.51H170.641L170.651 160.5ZM196.601 152.86C196.601 154.51 196.291 155.92 195.681 157.09C195.071 158.26 194.231 159.15 193.171 159.77C192.121 160.39 190.921 160.7 189.581 160.7C188.241 160.7 187.041 160.39 185.991 159.77C184.941 159.14 184.101 158.25 183.481 157.08C182.871 155.91 182.561 154.5 182.561 152.86C182.561 151.22 182.871 149.81 183.481 148.64C184.101 147.47 184.931 146.57 185.991 145.95C187.051 145.33 188.251 145.02 189.581 145.02C190.911 145.02 192.111 145.33 193.171 145.95C194.231 146.57 195.061 147.47 195.681 148.64C196.301 149.81 196.601 151.21 196.601 152.86ZM193.821 152.86C193.821 151.7 193.641 150.72 193.281 149.93C192.921 149.13 192.421 148.53 191.791 148.12C191.151 147.71 190.421 147.5 189.591 147.5C188.761 147.5 188.031 147.71 187.391 148.12C186.751 148.53 186.251 149.13 185.891 149.93C185.531 150.72 185.351 151.7 185.351 152.86C185.351 154.02 185.531 155 185.891 155.8C186.251 156.59 186.751 157.2 187.391 157.61C188.031 158.02 188.761 158.22 189.591 158.22C190.421 158.22 191.151 158.02 191.791 157.61C192.431 157.2 192.921 156.59 193.281 155.8C193.641 155 193.821 154.02 193.821 152.86ZM208.841 145.22H211.611V155.2C211.611 156.29 211.351 157.26 210.831 158.09C210.321 158.92 209.601 159.57 208.671 160.04C207.741 160.5 206.651 160.73 205.411 160.73C204.171 160.73 203.071 160.5 202.141 160.04C201.211 159.57 200.491 158.92 199.981 158.09C199.471 157.26 199.211 156.3 199.211 155.2V145.22H201.981V154.97C201.981 155.61 202.121 156.17 202.401 156.67C202.681 157.17 203.081 157.56 203.591 157.84C204.101 158.12 204.711 158.26 205.411 158.26C206.111 158.26 206.721 158.12 207.231 157.84C207.751 157.56 208.141 157.17 208.421 156.67C208.701 156.17 208.841 155.61 208.841 154.97V145.22ZM227.161 145.22V160.49H224.701L217.501 150.09H217.371V160.49H214.601V145.22H217.081L224.271 155.63H224.401V145.22H227.151H227.161ZM235.351 160.49H230.171V145.22H235.451C236.971 145.22 238.271 145.53 239.361 146.14C240.451 146.75 241.291 147.62 241.881 148.76C242.471 149.9 242.761 151.26 242.761 152.85C242.761 154.44 242.461 155.81 241.871 156.95C241.281 158.09 240.441 158.97 239.331 159.58C238.231 160.19 236.901 160.5 235.351 160.5V160.49ZM232.941 158.1H235.211C236.271 158.1 237.161 157.91 237.871 157.52C238.581 157.13 239.121 156.54 239.471 155.77C239.831 154.99 240.011 154.01 240.011 152.85C240.011 151.69 239.831 150.71 239.471 149.94C239.111 149.16 238.581 148.59 237.881 148.2C237.181 147.81 236.321 147.62 235.281 147.62H232.921V158.11L232.941 158.1ZM246.531 160.49H243.581L248.961 145.22H252.381L257.761 160.49H254.811L250.731 148.35H250.611L246.541 160.49H246.531ZM246.631 154.5H254.681V156.72H246.631V154.5ZM257.251 147.54V145.22H269.441V147.54H264.721V160.49H261.981V147.54H257.261H257.251ZM274.551 145.22V160.49H271.781V145.22H274.551ZM291.191 152.86C291.191 154.51 290.881 155.92 290.271 157.09C289.661 158.26 288.821 159.15 287.761 159.77C286.711 160.39 285.511 160.7 284.171 160.7C282.831 160.7 281.631 160.39 280.571 159.77C279.521 159.14 278.681 158.25 278.061 157.08C277.451 155.91 277.141 154.5 277.141 152.86C277.141 151.22 277.451 149.81 278.061 148.64C278.681 147.47 279.511 146.57 280.571 145.95C281.631 145.33 282.831 145.02 284.171 145.02C285.511 145.02 286.701 145.33 287.761 145.95C288.821 146.57 289.651 147.47 290.271 148.64C290.891 149.81 291.191 151.21 291.191 152.86ZM288.411 152.86C288.411 151.7 288.231 150.72 287.861 149.93C287.501 149.13 287.011 148.53 286.371 148.12C285.731 147.71 285.001 147.5 284.171 147.5C283.341 147.5 282.611 147.71 281.971 148.12C281.331 148.53 280.831 149.13 280.471 149.93C280.111 150.72 279.931 151.7 279.931 152.86C279.931 154.02 280.111 155 280.471 155.8C280.831 156.59 281.331 157.2 281.971 157.61C282.611 158.02 283.341 158.22 284.171 158.22C285.001 158.22 285.731 158.02 286.371 157.61C287.011 157.2 287.501 156.59 287.861 155.8C288.221 155 288.411 154.02 288.411 152.86ZM306.361 145.22V160.49H303.901L296.701 150.09H296.571V160.49H293.801V145.22H296.281L303.471 155.63H303.601V145.22H306.351H306.361ZM314.581 160.49V145.22H324.371V147.54H317.351V151.69H323.701V154.01H317.351V160.5H314.581V160.49ZM340.531 152.85C340.531 154.5 340.221 155.91 339.601 157.08C338.991 158.25 338.151 159.14 337.101 159.76C336.051 160.38 334.851 160.69 333.511 160.69C332.171 160.69 330.971 160.38 329.911 159.76C328.861 159.13 328.021 158.24 327.401 157.07C326.791 155.9 326.481 154.49 326.481 152.85C326.481 151.21 326.791 149.8 327.401 148.63C328.021 147.46 328.851 146.56 329.911 145.94C330.971 145.32 332.171 145.01 333.511 145.01C334.851 145.01 336.041 145.32 337.101 145.94C338.161 146.56 338.991 147.46 339.601 148.63C340.221 149.8 340.531 151.2 340.531 152.85ZM337.751 152.85C337.751 151.69 337.571 150.71 337.201 149.92C336.841 149.12 336.351 148.52 335.711 148.11C335.071 147.7 334.341 147.49 333.511 147.49C332.681 147.49 331.951 147.7 331.311 148.11C330.671 148.52 330.171 149.12 329.811 149.92C329.451 150.71 329.271 151.69 329.271 152.85C329.271 154.01 329.451 154.99 329.811 155.79C330.171 156.58 330.671 157.19 331.311 157.6C331.951 158.01 332.681 158.21 333.511 158.21C334.341 158.21 335.071 158.01 335.711 157.6C336.351 157.19 336.841 156.58 337.201 155.79C337.561 154.99 337.751 154.01 337.751 152.85ZM343.151 160.49V145.22H348.881C350.051 145.22 351.041 145.42 351.831 145.83C352.631 146.24 353.231 146.81 353.641 147.54C354.051 148.27 354.261 149.12 354.261 150.1C354.261 151.08 354.051 151.93 353.631 152.65C353.221 153.37 352.611 153.92 351.801 154.31C350.991 154.7 350.011 154.89 348.831 154.89H344.751V152.59H348.461C349.151 152.59 349.711 152.5 350.141 152.31C350.581 152.12 350.901 151.84 351.111 151.47C351.321 151.1 351.431 150.64 351.431 150.1C351.431 149.56 351.321 149.1 351.111 148.71C350.901 148.32 350.571 148.03 350.131 147.83C349.691 147.63 349.131 147.52 348.441 147.52H345.901V160.48H343.131L343.151 160.49ZM351.041 153.57L354.821 160.49H351.731L348.021 153.57H351.041ZM370.321 149.42C370.251 148.77 369.961 148.26 369.441 147.9C368.931 147.54 368.261 147.36 367.441 147.36C366.861 147.36 366.371 147.45 365.951 147.62C365.541 147.79 365.221 148.03 365.001 148.33C364.781 148.63 364.671 148.97 364.661 149.35C364.661 149.67 364.731 149.94 364.881 150.18C365.031 150.41 365.231 150.61 365.481 150.78C365.731 150.94 366.011 151.07 366.321 151.18C366.631 151.29 366.941 151.38 367.251 151.46L368.681 151.82C369.261 151.95 369.811 152.14 370.341 152.36C370.881 152.59 371.361 152.88 371.781 153.23C372.211 153.58 372.551 154 372.791 154.49C373.041 154.98 373.161 155.56 373.161 156.22C373.161 157.11 372.931 157.9 372.471 158.58C372.011 159.26 371.351 159.79 370.491 160.17C369.631 160.55 368.591 160.74 367.371 160.74C366.151 160.74 365.151 160.56 364.271 160.19C363.401 159.82 362.721 159.29 362.231 158.58C361.741 157.87 361.481 157.01 361.441 156H364.161C364.201 156.53 364.361 156.97 364.651 157.33C364.941 157.68 365.311 157.95 365.781 158.12C366.251 158.29 366.771 158.38 367.351 158.38C367.931 158.38 368.481 158.29 368.931 158.11C369.391 157.93 369.751 157.67 370.001 157.35C370.261 157.02 370.391 156.64 370.401 156.2C370.401 155.8 370.281 155.47 370.051 155.21C369.821 154.95 369.501 154.73 369.091 154.55C368.681 154.37 368.211 154.21 367.661 154.07L365.921 153.62C364.661 153.3 363.671 152.81 362.941 152.15C362.211 151.49 361.851 150.61 361.851 149.52C361.851 148.62 362.091 147.83 362.581 147.16C363.071 146.48 363.741 145.96 364.591 145.59C365.441 145.21 366.391 145.02 367.461 145.02C368.531 145.02 369.491 145.21 370.311 145.59C371.131 145.96 371.771 146.48 372.241 147.15C372.711 147.81 372.951 148.57 372.961 149.43H370.301L370.321 149.42ZM388.731 150.37H385.941C385.861 149.91 385.711 149.51 385.501 149.15C385.291 148.79 385.021 148.49 384.701 148.24C384.381 147.99 384.021 147.81 383.611 147.68C383.211 147.55 382.771 147.49 382.311 147.49C381.481 147.49 380.741 147.7 380.101 148.12C379.461 148.53 378.961 149.14 378.591 149.94C378.231 150.73 378.051 151.71 378.051 152.86C378.051 154.01 378.231 155.01 378.591 155.81C378.961 156.6 379.461 157.21 380.101 157.61C380.741 158.01 381.481 158.21 382.301 158.21C382.761 158.21 383.191 158.15 383.581 158.03C383.981 157.91 384.341 157.72 384.661 157.49C384.981 157.25 385.251 156.96 385.471 156.61C385.691 156.26 385.851 155.86 385.931 155.42H388.721C388.621 156.16 388.391 156.84 388.041 157.48C387.701 158.12 387.251 158.68 386.691 159.17C386.131 159.65 385.481 160.03 384.741 160.3C384.001 160.57 383.171 160.7 382.261 160.7C380.921 160.7 379.721 160.39 378.661 159.77C377.611 159.15 376.781 158.25 376.171 157.08C375.561 155.91 375.261 154.5 375.261 152.86C375.261 151.22 375.571 149.81 376.181 148.64C376.791 147.47 377.621 146.57 378.681 145.95C379.731 145.33 380.931 145.02 382.261 145.02C383.111 145.02 383.901 145.14 384.631 145.38C385.361 145.62 386.011 145.97 386.581 146.43C387.151 146.89 387.621 147.45 387.991 148.12C388.361 148.78 388.611 149.54 388.721 150.39L388.731 150.37ZM394.031 145.22V160.49H391.261V145.22H394.031ZM397.031 160.49V145.22H406.961V147.54H399.791V151.69H406.441V154.01H399.791V158.18H407.021V160.5H397.031V160.49ZM422.341 145.22V160.49H419.881L412.681 150.09H412.551V160.49H409.781V145.22H412.261L419.451 155.63H419.591V145.22H422.341ZM438.431 150.37H435.641C435.561 149.91 435.411 149.51 435.201 149.15C434.991 148.79 434.721 148.49 434.401 148.24C434.081 147.99 433.721 147.81 433.311 147.68C432.911 147.55 432.471 147.49 432.011 147.49C431.181 147.49 430.441 147.7 429.801 148.12C429.161 148.53 428.661 149.14 428.291 149.94C427.931 150.73 427.751 151.71 427.751 152.86C427.751 154.01 427.931 155.01 428.291 155.81C428.661 156.6 429.161 157.21 429.801 157.61C430.441 158.01 431.171 158.21 432.001 158.21C432.461 158.21 432.881 158.15 433.281 158.03C433.681 157.91 434.041 157.72 434.361 157.49C434.681 157.25 434.951 156.96 435.171 156.61C435.391 156.26 435.551 155.86 435.631 155.42H438.421C438.321 156.16 438.091 156.84 437.741 157.48C437.401 158.12 436.951 158.68 436.391 159.17C435.831 159.65 435.181 160.03 434.441 160.3C433.691 160.57 432.871 160.7 431.961 160.7C430.621 160.7 429.421 160.39 428.371 159.77C427.321 159.15 426.491 158.25 425.881 157.08C425.271 155.91 424.971 154.5 424.971 152.86C424.971 151.22 425.281 149.81 425.891 148.64C426.501 147.47 427.331 146.57 428.391 145.95C429.441 145.33 430.641 145.02 431.971 145.02C432.821 145.02 433.611 145.14 434.341 145.38C435.071 145.62 435.721 145.97 436.291 146.43C436.861 146.89 437.331 147.45 437.701 148.12C438.071 148.78 438.321 149.54 438.431 150.39V150.37ZM440.961 160.49V145.22H450.891V147.54H443.721V151.69H450.371V154.01H443.721V158.18H450.951V160.5H440.961V160.49ZM456.761 158.4L456.661 159.22C456.591 159.85 456.471 160.48 456.291 161.13C456.121 161.78 455.931 162.38 455.741 162.93C455.551 163.48 455.391 163.91 455.271 164.22H453.451C453.521 163.92 453.611 163.5 453.731 162.98C453.851 162.46 453.971 161.87 454.091 161.22C454.201 160.57 454.281 159.91 454.321 159.24L454.371 158.41H456.761V158.4ZM463.971 147.53V145.21H476.151V147.53H471.431V160.48H468.691V147.53H463.971ZM478.501 160.48V145.21H488.431V147.53H481.261V151.68H487.911V154H481.261V158.17H488.491V160.49H478.501V160.48ZM504.331 150.36H501.541C501.461 149.9 501.311 149.5 501.101 149.14C500.891 148.78 500.621 148.48 500.301 148.23C499.981 147.98 499.621 147.8 499.211 147.67C498.811 147.54 498.371 147.48 497.911 147.48C497.081 147.48 496.341 147.69 495.701 148.11C495.061 148.52 494.561 149.13 494.191 149.93C493.831 150.72 493.651 151.7 493.651 152.85C493.651 154 493.831 155 494.191 155.8C494.561 156.59 495.061 157.2 495.701 157.6C496.341 158 497.071 158.2 497.901 158.2C498.361 158.2 498.791 158.14 499.181 158.02C499.581 157.9 499.941 157.71 500.261 157.48C500.581 157.24 500.851 156.95 501.071 156.6C501.291 156.25 501.451 155.85 501.531 155.41H504.321C504.221 156.15 503.991 156.83 503.641 157.47C503.301 158.11 502.851 158.67 502.291 159.16C501.731 159.64 501.081 160.02 500.341 160.29C499.591 160.56 498.771 160.69 497.861 160.69C496.521 160.69 495.321 160.38 494.271 159.76C493.221 159.14 492.391 158.24 491.781 157.07C491.171 155.9 490.871 154.49 490.871 152.85C490.871 151.21 491.181 149.8 491.791 148.63C492.401 147.46 493.231 146.56 494.291 145.94C495.341 145.32 496.541 145.01 497.871 145.01C498.721 145.01 499.511 145.13 500.241 145.37C500.971 145.61 501.621 145.96 502.191 146.42C502.761 146.88 503.231 147.44 503.601 148.11C503.971 148.77 504.221 149.53 504.331 150.38V150.36ZM506.861 160.48V145.21H509.631V151.68H516.711V145.21H519.491V160.48H516.711V153.99H509.631V160.48H506.861ZM535.041 145.21V160.48H532.581L525.381 150.08H525.251V160.48H522.481V145.21H524.951L532.141 155.62H532.271V145.21H535.021H535.041ZM551.701 152.85C551.701 154.5 551.391 155.91 550.781 157.08C550.171 158.25 549.331 159.14 548.271 159.76C547.221 160.38 546.021 160.69 544.681 160.69C543.341 160.69 542.141 160.38 541.081 159.76C540.031 159.13 539.191 158.24 538.581 157.07C537.971 155.9 537.661 154.49 537.661 152.85C537.661 151.21 537.971 149.8 538.581 148.63C539.201 147.46 540.031 146.56 541.081 145.94C542.141 145.32 543.341 145.01 544.681 145.01C546.021 145.01 547.211 145.32 548.271 145.94C549.331 146.56 550.161 147.46 550.781 148.63C551.401 149.8 551.701 151.2 551.701 152.85ZM548.921 152.85C548.921 151.69 548.741 150.71 548.381 149.92C548.021 149.12 547.521 148.52 546.891 148.11C546.251 147.7 545.521 147.49 544.691 147.49C543.861 147.49 543.131 147.7 542.491 148.11C541.851 148.52 541.351 149.12 540.991 149.92C540.631 150.71 540.451 151.69 540.451 152.85C540.451 154.01 540.631 154.99 540.991 155.79C541.351 156.58 541.851 157.19 542.491 157.6C543.131 158.01 543.861 158.21 544.691 158.21C545.521 158.21 546.251 158.01 546.891 157.6C547.531 157.19 548.021 156.58 548.381 155.79C548.741 154.99 548.921 154.01 548.921 152.85ZM554.321 160.49V145.22H557.091V158.17H563.821V160.49H554.331H554.321ZM579.271 152.85C579.271 154.5 578.961 155.91 578.341 157.08C577.731 158.25 576.891 159.14 575.831 159.76C574.781 160.38 573.581 160.69 572.241 160.69C570.901 160.69 569.701 160.38 568.651 159.76C567.601 159.13 566.761 158.24 566.141 157.07C565.531 155.9 565.221 154.49 565.221 152.85C565.221 151.21 565.531 149.8 566.141 148.63C566.761 147.46 567.591 146.56 568.651 145.94C569.711 145.32 570.911 145.01 572.241 145.01C573.571 145.01 574.771 145.32 575.831 145.94C576.891 146.56 577.721 147.46 578.341 148.63C578.961 149.8 579.271 151.2 579.271 152.85ZM576.491 152.85C576.491 151.69 576.311 150.71 575.951 149.92C575.591 149.12 575.091 148.52 574.461 148.11C573.821 147.7 573.091 147.49 572.261 147.49C571.431 147.49 570.701 147.7 570.061 148.11C569.421 148.52 568.921 149.12 568.561 149.92C568.201 150.71 568.021 151.69 568.021 152.85C568.021 154.01 568.201 154.99 568.561 155.79C568.921 156.58 569.421 157.19 570.061 157.6C570.701 158.01 571.431 158.21 572.261 158.21C573.091 158.21 573.821 158.01 574.461 157.6C575.101 157.19 575.591 156.58 575.951 155.79C576.311 154.99 576.491 154.01 576.491 152.85ZM592.121 150.09C592.001 149.69 591.821 149.33 591.611 149.01C591.401 148.69 591.141 148.41 590.841 148.18C590.541 147.95 590.201 147.78 589.811 147.67C589.421 147.55 589.001 147.49 588.541 147.49C587.721 147.49 586.991 147.7 586.351 148.11C585.711 148.52 585.201 149.13 584.841 149.93C584.481 150.73 584.301 151.69 584.301 152.84C584.301 153.99 584.481 154.97 584.841 155.77C585.201 156.57 585.711 157.18 586.351 157.6C587.001 158.01 587.751 158.22 588.601 158.22C589.381 158.22 590.051 158.07 590.611 157.77C591.181 157.47 591.621 157.05 591.931 156.5C592.241 155.95 592.391 155.3 592.391 154.56L593.021 154.66H588.871V152.5H595.071V154.33C595.071 155.64 594.791 156.77 594.241 157.72C593.681 158.68 592.921 159.41 591.941 159.93C590.971 160.44 589.851 160.7 588.581 160.7C587.171 160.7 585.941 160.38 584.871 159.75C583.811 159.11 582.981 158.21 582.391 157.04C581.801 155.87 581.501 154.47 581.501 152.86C581.501 151.63 581.671 150.53 582.021 149.56C582.371 148.59 582.871 147.77 583.501 147.09C584.131 146.41 584.871 145.89 585.721 145.54C586.571 145.18 587.491 145 588.491 145C589.341 145 590.121 145.12 590.851 145.37C591.581 145.61 592.231 145.96 592.801 146.41C593.371 146.86 593.841 147.4 594.211 148.02C594.581 148.64 594.821 149.33 594.931 150.08H592.111L592.121 150.09ZM596.121 145.21H599.241L602.981 151.97H603.131L606.871 145.21H609.991L604.431 154.79V160.49H601.671V154.79L596.121 145.21ZM621.601 160.71C620.561 160.71 619.661 160.52 618.911 160.14C618.161 159.76 617.581 159.25 617.171 158.61C616.771 157.96 616.571 157.24 616.571 156.42C616.571 155.81 616.691 155.27 616.941 154.79C617.191 154.32 617.541 153.88 617.981 153.48C618.431 153.08 618.941 152.68 619.531 152.28L622.241 150.44C622.641 150.18 622.941 149.91 623.141 149.62C623.351 149.33 623.451 148.99 623.451 148.61C623.451 148.28 623.311 147.97 623.031 147.68C622.761 147.39 622.381 147.24 621.901 147.24C621.581 147.24 621.291 147.32 621.041 147.47C620.801 147.62 620.601 147.82 620.471 148.06C620.341 148.3 620.271 148.56 620.271 148.84C620.271 149.17 620.361 149.51 620.551 149.85C620.741 150.19 620.981 150.55 621.281 150.92C621.581 151.29 621.911 151.68 622.251 152.09L629.421 160.49H626.501L620.551 153.67C620.111 153.15 619.681 152.64 619.271 152.14C618.861 151.64 618.531 151.12 618.261 150.57C618.001 150.02 617.871 149.43 617.871 148.79C617.871 148.07 618.041 147.43 618.371 146.86C618.701 146.29 619.171 145.84 619.761 145.51C620.361 145.18 621.061 145.02 621.871 145.02C622.681 145.02 623.371 145.18 623.941 145.5C624.521 145.82 624.961 146.24 625.271 146.77C625.581 147.3 625.741 147.87 625.741 148.49C625.741 149.21 625.561 149.86 625.201 150.43C624.841 151 624.341 151.51 623.711 151.97L620.621 154.23C620.111 154.6 619.751 154.97 619.531 155.35C619.311 155.72 619.201 156.04 619.201 156.31C619.201 156.71 619.301 157.08 619.511 157.41C619.721 157.74 620.001 158 620.371 158.2C620.741 158.39 621.181 158.49 621.671 158.49C622.221 158.49 622.761 158.37 623.291 158.12C623.821 157.87 624.311 157.52 624.741 157.06C625.181 156.6 625.521 156.06 625.781 155.42C626.041 154.78 626.171 154.07 626.171 153.29H628.491C628.491 154.25 628.381 155.09 628.171 155.81C627.961 156.52 627.681 157.12 627.341 157.61C627.001 158.1 626.641 158.49 626.271 158.78C626.151 158.86 626.041 158.95 625.931 159.03C625.821 159.12 625.711 159.2 625.591 159.28C625.051 159.77 624.421 160.12 623.701 160.35C622.981 160.58 622.281 160.69 621.591 160.69L621.601 160.71ZM636.291 160.49V145.22H642.021C643.191 145.22 644.181 145.42 644.971 145.83C645.771 146.24 646.371 146.81 646.781 147.54C647.191 148.27 647.401 149.12 647.401 150.1C647.401 151.08 647.191 151.93 646.771 152.65C646.361 153.37 645.751 153.92 644.941 154.31C644.131 154.7 643.141 154.89 641.971 154.89H637.891V152.59H641.601C642.291 152.59 642.851 152.5 643.281 152.31C643.721 152.12 644.041 151.84 644.251 151.47C644.461 151.1 644.571 150.64 644.571 150.1C644.571 149.56 644.461 149.1 644.251 148.71C644.041 148.32 643.711 148.03 643.271 147.83C642.831 147.63 642.271 147.52 641.581 147.52H639.041V160.48H636.271L636.291 160.49ZM644.181 153.57L647.961 160.49H644.871L641.161 153.57H644.181ZM649.951 160.49V145.22H659.881V147.54H652.711V151.69H659.361V154.01H652.711V158.18H659.941V160.5H649.951V160.49ZM671.011 149.42C670.941 148.77 670.651 148.26 670.131 147.9C669.621 147.54 668.951 147.36 668.131 147.36C667.551 147.36 667.061 147.45 666.651 147.62C666.241 147.79 665.921 148.03 665.701 148.33C665.481 148.63 665.371 148.97 665.361 149.35C665.361 149.67 665.431 149.94 665.581 150.18C665.731 150.41 665.931 150.61 666.181 150.78C666.431 150.94 666.711 151.07 667.021 151.18C667.331 151.29 667.641 151.38 667.951 151.46L669.381 151.82C669.961 151.95 670.511 152.14 671.041 152.36C671.581 152.59 672.061 152.88 672.481 153.23C672.911 153.58 673.251 154 673.491 154.49C673.741 154.98 673.861 155.56 673.861 156.22C673.861 157.11 673.631 157.9 673.171 158.58C672.711 159.26 672.051 159.79 671.191 160.17C670.331 160.55 669.291 160.74 668.071 160.74C666.851 160.74 665.851 160.56 664.981 160.19C664.111 159.82 663.431 159.29 662.941 158.58C662.451 157.87 662.191 157.01 662.151 156H664.871C664.911 156.53 665.071 156.97 665.361 157.33C665.651 157.68 666.021 157.95 666.491 158.12C666.961 158.29 667.481 158.38 668.061 158.38C668.641 158.38 669.191 158.29 669.641 158.11C670.101 157.93 670.461 157.67 670.711 157.35C670.971 157.02 671.101 156.64 671.111 156.2C671.111 155.8 670.991 155.47 670.761 155.21C670.531 154.95 670.211 154.73 669.801 154.55C669.391 154.37 668.911 154.21 668.371 154.07L666.631 153.62C665.371 153.3 664.381 152.81 663.651 152.15C662.921 151.49 662.561 150.61 662.561 149.52C662.561 148.62 662.801 147.83 663.291 147.16C663.781 146.48 664.451 145.96 665.301 145.59C666.151 145.21 667.101 145.02 668.171 145.02C669.241 145.02 670.201 145.21 671.021 145.59C671.841 145.96 672.481 146.48 672.951 147.15C673.421 147.81 673.661 148.57 673.671 149.43H671.011V149.42ZM676.351 160.49V145.22H686.281V147.54H679.111V151.69H685.761V154.01H679.111V158.18H686.341V160.5H676.351V160.49ZM691.071 160.49H688.121L693.501 145.22H696.921L702.301 160.49H699.351L695.271 148.35H695.151L691.081 160.49H691.071ZM691.171 154.5H699.221V156.72H691.171V154.5ZM704.311 160.49V145.22H710.041C711.211 145.22 712.201 145.42 712.991 145.83C713.791 146.24 714.391 146.81 714.801 147.54C715.211 148.27 715.421 149.12 715.421 150.1C715.421 151.08 715.211 151.93 714.791 152.65C714.381 153.37 713.771 153.92 712.961 154.31C712.161 154.7 711.171 154.89 709.991 154.89H705.911V152.59H709.621C710.311 152.59 710.871 152.5 711.311 152.31C711.751 152.12 712.071 151.84 712.281 151.47C712.491 151.1 712.601 150.64 712.601 150.1C712.601 149.56 712.491 149.1 712.281 148.71C712.071 148.32 711.741 148.03 711.301 147.83C710.861 147.63 710.301 147.52 709.611 147.52H707.071V160.48H704.301L704.311 160.49ZM712.201 153.57L715.981 160.49H712.891L709.181 153.57H712.201ZM731.041 150.37H728.251C728.171 149.91 728.021 149.51 727.811 149.15C727.601 148.79 727.331 148.49 727.011 148.24C726.691 147.99 726.331 147.81 725.921 147.68C725.521 147.55 725.081 147.49 724.621 147.49C723.791 147.49 723.051 147.7 722.411 148.12C721.771 148.53 721.271 149.14 720.901 149.94C720.541 150.73 720.351 151.71 720.351 152.86C720.351 154.01 720.531 155.01 720.901 155.81C721.271 156.6 721.771 157.21 722.411 157.61C723.051 158.01 723.791 158.21 724.611 158.21C725.071 158.21 725.501 158.15 725.891 158.03C726.291 157.91 726.651 157.72 726.971 157.49C727.291 157.25 727.561 156.96 727.781 156.61C728.001 156.26 728.161 155.86 728.241 155.42H731.031C730.931 156.16 730.701 156.84 730.351 157.48C730.011 158.12 729.561 158.68 729.001 159.17C728.441 159.65 727.791 160.03 727.051 160.3C726.301 160.57 725.481 160.7 724.571 160.7C723.231 160.7 722.031 160.39 720.971 159.77C719.921 159.15 719.091 158.25 718.481 157.08C717.871 155.91 717.571 154.5 717.571 152.86C717.571 151.22 717.881 149.81 718.491 148.64C719.101 147.47 719.931 146.57 720.991 145.95C722.041 145.33 723.241 145.02 724.571 145.02C725.421 145.02 726.211 145.14 726.941 145.38C727.671 145.62 728.321 145.97 728.891 146.43C729.461 146.89 729.931 147.45 730.301 148.12C730.671 148.78 730.921 149.54 731.031 150.39L731.041 150.37ZM733.571 160.49V145.22H736.341V151.69H743.421V145.22H746.191V160.49H743.421V154H736.341V160.49H733.571Z" fill="#010101"/>
<path d="M188.86 1.27L211.36 72H212.22L234.77 1.27H256.59L224.5 94.36H199.14L167 1.27H188.86ZM282.35 1.27V94.36H262.67V1.27H282.35ZM355.15 31.36C354.51 29.15 353.62 27.19 352.47 25.5C351.32 23.77 349.91 22.32 348.24 21.14C346.6 19.93 344.73 19 342.6 18.37C340.51 17.73 338.19 17.42 335.65 17.42C330.89 17.42 326.71 18.6 323.1 20.97C319.53 23.33 316.74 26.77 314.74 31.29C312.74 35.77 311.74 41.26 311.74 47.74C311.74 54.22 312.73 59.74 314.69 64.29C316.66 68.84 319.45 72.31 323.05 74.7C326.66 77.06 330.91 78.25 335.82 78.25C340.27 78.25 344.08 77.46 347.23 75.89C350.41 74.28 352.84 72.03 354.5 69.12C356.2 66.21 357.05 62.77 357.05 58.8L361.05 59.39H337.05V44.57H376V56.3C376 64.48 374.27 71.51 370.82 77.39C367.37 83.24 362.61 87.75 356.55 90.94C350.49 94.09 343.55 95.67 335.73 95.67C327 95.67 319.34 93.75 312.73 89.9C306.12 86.02 300.97 80.52 297.27 73.4C293.6 66.25 291.77 57.76 291.77 47.95C291.77 40.4 292.86 33.68 295.04 27.77C297.25 21.83 300.34 16.8 304.31 12.68C308.28 8.56 312.9 5.42 318.17 3.27C323.44 1.12 329.16 0.04 335.31 0.04C340.58 0.04 345.49 0.81 350.04 2.36C354.58 3.88 358.62 6.03 362.13 8.81C365.67 11.6 368.57 14.92 370.81 18.76C373.05 22.58 374.49 26.79 375.13 31.4H355.13L355.15 31.36ZM463.54 1.27V94.36H446.54L406.04 35.77H405.36V94.36H385.68V1.27H402.95L443.13 59.82H443.95V1.27H463.54ZM490.73 94.36H469.64L501.78 1.27H527.14L559.23 94.36H538.14L514.82 22.54H514.09L490.73 94.36ZM489.41 57.77H539.23V73.13H489.41V57.77ZM643.18 1.27V94.36H626.18L585.68 35.77H585V94.36H565.32V1.27H582.59L622.77 59.82H623.59V1.27H643.18ZM728.83 28.04C728.47 24.37 726.91 21.52 724.15 19.49C721.39 17.46 717.65 16.44 712.92 16.44C709.71 16.44 707 16.89 704.78 17.8C702.57 18.68 700.87 19.91 699.69 21.48C698.54 23.06 697.96 24.84 697.96 26.84C697.9 28.51 698.25 29.96 699.01 31.2C699.8 32.44 700.87 33.52 702.24 34.43C703.6 35.31 705.18 36.08 706.97 36.75C708.76 37.39 710.67 37.93 712.7 38.39L721.06 40.39C725.12 41.3 728.85 42.51 732.24 44.03C735.63 45.55 738.57 47.41 741.06 49.62C743.55 51.83 745.47 54.44 746.83 57.44C748.22 60.44 748.94 63.88 748.97 67.76C748.94 73.46 747.49 78.4 744.61 82.58C741.76 86.73 737.64 89.96 732.25 92.26C726.89 94.53 720.42 95.67 712.84 95.67C705.26 95.67 698.78 94.52 693.2 92.22C687.65 89.92 683.32 86.51 680.2 81.99C677.11 77.44 675.49 71.82 675.34 65.13H694.38C694.59 68.25 695.49 70.86 697.06 72.95C698.67 75.01 700.8 76.57 703.47 77.63C706.17 78.66 709.21 79.18 712.61 79.18C716.01 79.18 718.84 78.7 721.29 77.73C723.78 76.76 725.7 75.41 727.06 73.68C728.42 71.95 729.11 69.97 729.11 67.73C729.11 65.64 728.49 63.88 727.25 62.46C726.04 61.04 724.25 59.82 721.89 58.82C719.56 57.82 716.69 56.91 713.3 56.09L703.16 53.54C695.31 51.63 689.11 48.65 684.57 44.59C680.02 40.53 677.77 35.06 677.8 28.18C677.77 22.54 679.27 17.62 682.3 13.41C685.36 9.2 689.56 5.91 694.89 3.55C700.22 1.19 706.28 0 713.07 0C719.86 0 726.01 1.18 731.16 3.55C736.34 5.91 740.37 9.2 743.25 13.41C746.13 17.62 747.61 22.5 747.7 28.05H728.84L728.83 28.04Z" fill="#FF0000"/>
<path d="M648.27 31.98C656.79 31.14 660.63 27.18 660.03 20.1H652.59V0.900024H672.03V17.1C672.03 32.94 664.11 39.42 649.83 39.54L648.27 31.98Z" fill="#FF0000"/>
</g>
<defs>
<clipPath id="clip0_2281_17889">
<rect width="141.639" height="160" fill="white"/>
</clipPath>
<clipPath id="clip1_2281_17889">
<rect width="591" height="163.09" fill="white" transform="translate(161.641)"/>
</clipPath>
</defs>
</svg>
