<?xml version="1.0" standalone="no"?>
<!DOCTYPE svg PUBLIC "-//W3C//DTD SVG 20010904//EN"
 "http://www.w3.org/TR/2001/REC-SVG-20010904/DTD/svg10.dtd">
<svg version="1.0" xmlns="http://www.w3.org/2000/svg"
 width="536.000000pt" height="1116.000000pt" viewBox="0 0 536.000000 1116.000000"
 preserveAspectRatio="xMidYMid meet">

<g transform="translate(0.000000,1116.000000) scale(0.100000,-0.100000)"
fill="#000000" stroke="none">
<path d="M0 8585 c0 -1559 4 -2575 9 -2575 13 0 75 33 79 43 2 4 16 7 31 7 15
0 35 8 44 18 98 105 181 159 306 202 47 15 72 19 106 13 61 -11 46 -34 -21
-36 l-49 0 30 -13 c17 -7 36 -13 43 -14 7 0 10 -5 6 -11 -9 -16 15 -29 54 -29
17 0 32 -5 32 -10 0 -14 -67 -2 -95 16 -23 14 -182 16 -191 3 -3 -5 -16 -9
-30 -9 -18 0 -23 -4 -17 -12 13 -22 2 -49 -33 -80 -19 -17 -34 -37 -34 -45 0
-22 -47 -63 -72 -63 -14 0 -18 -5 -14 -15 3 -9 0 -15 -8 -15 -9 0 -12 -7 -9
-19 5 -18 -20 -36 -37 -26 -4 3 -10 -6 -12 -20 -4 -18 -1 -25 10 -25 13 0 13
-3 4 -12 -16 -16 -15 -43 3 -58 17 -14 20 -30 4 -30 -5 0 -7 6 -4 13 4 6 -1 3
-9 -7 -9 -11 -24 -21 -33 -22 -10 -2 -19 -8 -21 -13 -5 -15 -52 -14 -52 2 0 8
-4 7 -10 -3 -6 -10 -10 -1063 -10 -2878 l0 -2862 2680 0 2680 0 0 5580 0 5580
-2680 0 -2680 0 0 -2575z m1920 2435 c0 -5 -5 -10 -11 -10 -5 0 -7 5 -4 10 3
6 8 10 11 10 2 0 4 -4 4 -10z m103 -8 c-4 -8 0 -10 11 -6 10 4 25 -1 36 -11
11 -10 30 -18 42 -19 13 -1 22 -7 20 -15 -1 -7 2 -10 7 -6 6 3 15 -3 20 -14 6
-11 21 -21 33 -23 13 -2 22 -9 20 -16 -3 -15 102 -10 173 7 22 6 93 8 157 5
93 -4 125 -1 155 11 21 9 52 15 68 14 17 -1 60 1 96 5 67 8 137 -5 214 -39 41
-19 199 -74 258 -90 26 -7 53 -18 60 -22 7 -5 30 -15 52 -21 22 -6 82 -38 132
-71 85 -55 110 -77 101 -86 -4 -4 -63 23 -128 61 -66 38 -158 75 -220 90 -54
12 -188 58 -248 85 -17 7 -35 23 -41 35 -10 22 -57 33 -151 37 -80 3 -99 -2
-102 -29 l-3 -25 -225 -5 c-228 -5 -387 -24 -476 -58 -36 -13 -77 -25 -114
-32 -53 -10 -94 -24 -110 -39 -11 -10 -26 -14 -38 -10 -11 3 -23 1 -27 -5 -3
-5 -2 -10 3 -10 19 0 22 -45 5 -57 -24 -18 -89 -17 -97 2 -9 24 -39 19 -33 -5
3 -11 1 -23 -4 -26 -5 -3 -7 -9 -4 -14 3 -4 -4 -6 -15 -3 -14 4 -22 -1 -29
-20 -5 -13 -16 -27 -25 -30 -20 -8 -39 18 -31 43 3 11 3 20 -2 20 -16 0 -30
-16 -36 -40 -3 -14 -13 -34 -22 -45 -14 -19 -15 -19 -13 -1 2 11 -5 21 -19 27
-27 10 -31 -5 -5 -20 19 -11 17 -12 -48 -16 -50 -4 -100 -20 -100 -33 0 -24
-100 -38 -107 -15 -2 6 13 29 34 50 30 30 51 41 103 52 36 8 72 18 80 22 8 4
45 21 83 39 38 17 67 37 67 45 0 9 15 17 40 21 36 6 42 11 65 61 14 31 25 62
25 71 0 15 46 64 71 76 11 4 11 7 2 12 -10 4 -10 9 1 20 15 15 30 19 23 7 -3
-5 9 -9 26 -10 18 0 26 1 20 4 -18 7 -16 23 3 23 8 0 12 4 9 10 -3 6 1 7 10 4
8 -4 26 1 40 10 27 18 39 21 31 7 -4 -5 3 -7 13 -4 11 3 18 10 15 16 -3 8 7
12 25 12 19 0 27 -4 24 -13z m727 -178 c0 -8 -5 -12 -10 -9 -6 4 -8 11 -5 16
9 14 15 11 15 -7z m580 -115 c17 -30 8 -31 -19 -3 -18 19 -20 24 -7 24 8 0 20
-9 26 -21z m-1070 -31 c0 -15 -28 -8 -34 8 -10 26 5 39 21 19 7 -11 13 -22 13
-27z m148 20 c14 -14 16 -32 3 -23 -5 3 -12 1 -16 -5 -9 -15 -45 -12 -45 3 0
16 20 37 35 37 6 0 16 -5 23 -12z m-548 -8 c0 -5 -2 -10 -4 -10 -3 0 -8 5 -11
10 -3 6 -1 10 4 10 6 0 11 -4 11 -10z m285 -16 c0 -5 -8 -10 -17 -12 -11 -2
-18 3 -18 11 0 9 8 14 18 13 9 -2 17 -7 17 -12z m70 6 c-3 -5 -10 -10 -16 -10
-5 0 -9 5 -9 10 0 6 7 10 16 10 8 0 12 -4 9 -10z m125 6 c0 -3 -4 -8 -10 -11
-5 -3 -10 -1 -10 4 0 6 5 11 10 11 6 0 10 -2 10 -4z m210 -95 c0 -25 -18 -37
-26 -17 -3 9 -11 13 -18 10 -6 -3 -2 2 8 10 26 21 36 20 36 -3z m146 -16 c4
-8 3 -23 -2 -32 -7 -16 -8 -15 -11 5 -3 12 -9 20 -14 17 -5 -4 -9 1 -9 9 0 20
29 21 36 1z m654 5 c0 -5 -7 -10 -15 -10 -8 0 -15 5 -15 10 0 6 7 10 15 10 8
0 15 -4 15 -10z m-1640 -56 c0 -20 -7 -17 -20 6 -9 16 -8 18 5 14 8 -4 15 -12
15 -20z m2070 11 c14 -16 10 -18 -14 -9 -9 3 -16 10 -16 15 0 14 16 11 30 -6z
m-1439 -18 c-10 -9 -11 -8 -5 6 3 10 9 15 12 12 3 -3 0 -11 -7 -18z m409 8 c0
-9 -6 -12 -15 -9 -8 4 -15 10 -15 15 0 5 7 9 15 9 8 0 15 -7 15 -15z m1137
-101 c-3 -3 -12 -4 -19 -1 -8 3 -5 6 6 6 11 1 17 -2 13 -5z m-2390 -51 c-3
-10 -5 -4 -5 12 0 17 2 24 5 18 2 -7 2 -21 0 -30z m-317 -33 c-1 -8 -26 -40
-33 -40 -7 0 -18 31 -13 39 5 8 46 9 46 1z m1400 -736 c30 -9 71 -22 90 -29
19 -8 47 -14 61 -13 15 0 49 -5 75 -11 51 -12 188 -32 214 -30 94 4 197 2 322
-7 83 -7 164 -10 182 -9 137 14 356 -5 356 -30 0 -8 12 -23 26 -34 15 -12 22
-21 15 -21 -6 0 -11 -7 -11 -16 0 -8 5 -12 10 -9 6 3 10 2 10 -3 0 -12 44 -26
80 -27 23 0 26 -6 38 -65 6 -36 16 -74 21 -85 22 -46 28 -163 23 -400 -3 -112
-1 -145 9 -145 12 0 10 -122 -2 -136 -10 -12 -17 -9 -45 22 -19 20 -34 40 -34
45 0 5 -20 8 -45 7 -25 -1 -39 -6 -32 -10 7 -4 8 -8 4 -8 -4 0 -19 7 -33 16
-13 9 -32 18 -42 19 -34 5 -62 17 -56 26 3 5 0 9 -5 9 -6 0 -11 -5 -11 -11 0
-6 -7 -9 -15 -6 -8 4 -17 2 -20 -3 -4 -6 -11 -10 -16 -10 -6 0 -8 4 -5 9 6 9
-128 4 -154 -6 -19 -8 -38 -12 -77 -17 -17 -2 -42 -10 -55 -18 -12 -7 -27 -13
-33 -14 -25 -1 -62 -19 -90 -42 -28 -23 -35 -24 -109 -18 -61 4 -88 11 -118
31 -20 14 -50 25 -66 25 -25 0 -28 4 -29 35 -1 40 -20 68 -39 61 -8 -3 -19 4
-24 15 -8 14 -17 18 -30 14 -11 -3 -28 -1 -38 4 -11 6 -41 12 -66 15 -27 2
-53 11 -59 20 -7 8 -36 18 -67 22 -51 6 -85 8 -198 12 -27 1 -41 6 -37 12 4 7
-3 8 -22 4 -15 -4 -29 -11 -31 -16 -2 -4 -15 -8 -28 -8 -14 0 -23 4 -20 9 4 5
-4 7 -16 3 -14 -3 -19 -2 -14 6 5 8 -1 12 -16 12 -19 0 -20 -2 -8 -11 11 -7 6
-8 -20 -3 -35 7 -53 21 -44 36 3 4 0 8 -6 8 -8 0 -10 -9 -6 -24 5 -20 3 -23
-17 -19 -15 3 -40 -6 -68 -25 -39 -26 -80 -45 -101 -47 -4 0 -19 -12 -33 -27
-14 -16 -34 -28 -45 -28 -10 0 -22 -4 -25 -10 -3 -5 3 -10 15 -10 13 0 20 -5
17 -12 -2 -7 -13 -13 -25 -12 -11 0 -20 -2 -19 -5 0 -3 -2 -15 -5 -26 -3 -11
-9 -33 -12 -48 -5 -20 -11 -27 -21 -23 -17 6 -27 -6 -17 -20 15 -23 106 -84
124 -84 32 0 17 -34 -17 -41 -25 -5 -27 -7 -12 -14 9 -4 26 -5 37 -2 11 3 18
1 15 -4 -3 -4 46 -7 110 -5 64 1 118 -1 120 -4 5 -8 64 -24 78 -21 4 0 7 -3 7
-8 0 -11 78 -31 96 -24 8 3 14 0 14 -6 0 -6 -11 -11 -25 -11 -33 0 -105 -36
-105 -53 1 -36 14 -40 151 -33 74 3 145 7 159 9 22 4 98 35 168 69 21 11 39
49 34 75 -2 7 5 9 18 6 11 -3 20 0 20 6 0 19 38 12 45 -8 7 -23 40 -18 50 7 3
10 6 18 5 20 0 1 6 15 15 31 12 24 24 31 61 37 60 9 144 0 181 -19 34 -18 41
-32 74 -146 18 -62 33 -94 58 -120 21 -23 36 -31 38 -23 3 6 13 12 24 12 10 0
19 6 19 13 1 6 10 1 20 -12 11 -13 20 -20 20 -15 0 16 29 -32 30 -48 0 -10 6
-18 13 -18 6 0 20 -12 31 -28 20 -30 93 -81 140 -98 41 -14 117 0 135 26 7 11
21 20 30 20 10 0 29 21 46 49 16 28 31 49 34 48 3 -1 17 5 29 12 13 7 35 10
49 6 15 -3 22 -2 19 4 -4 5 9 15 28 22 19 7 33 16 30 20 -2 4 0 10 5 14 6 3 8
-25 6 -77 -3 -46 -7 -187 -9 -314 -5 -220 -19 -368 -37 -388 -5 -6 -9 -17 -9
-26 0 -9 -9 -32 -19 -53 -10 -20 -22 -49 -26 -64 -3 -15 -15 -34 -25 -43 -10
-9 -22 -28 -25 -43 -5 -18 -14 -27 -27 -27 -14 0 -18 -5 -15 -15 4 -8 -4 -22
-16 -32 -13 -10 -26 -27 -31 -38 -6 -16 -9 -17 -16 -5 -7 11 -11 11 -24 1 -8
-7 -12 -19 -9 -27 3 -8 -1 -14 -11 -14 -10 0 -13 -6 -10 -15 5 -11 2 -13 -12
-8 -12 4 -15 3 -10 -5 4 -7 2 -12 -5 -12 -7 0 -9 -10 -7 -24 4 -20 -16 -46
-37 -46 -13 0 -3 74 15 107 11 21 20 47 20 58 0 31 11 65 20 60 4 -2 5 6 3 19
-3 13 -1 32 5 42 10 21 5 47 -8 39 -5 -3 -12 0 -16 6 -4 8 -3 9 4 5 16 -10 15
6 -3 40 -8 16 -15 36 -15 45 0 17 -58 109 -69 109 -4 0 -18 10 -31 22 l-23 22
6 -25 c16 -64 19 -127 7 -134 -8 -5 -11 -4 -7 2 4 6 -1 17 -10 24 -14 12 -15
11 -9 -9 5 -16 3 -22 -7 -22 -9 0 -17 -6 -20 -12 -3 -7 -12 4 -21 25 -16 36
-36 50 -36 25 -1 -7 -9 3 -19 22 -9 19 -23 34 -30 32 -7 -1 -10 1 -7 6 3 5
-10 24 -29 42 -41 40 -43 46 -12 55 45 14 122 105 88 105 -5 0 -23 14 -41 31
l-31 31 -65 -16 c-36 -9 -69 -14 -75 -11 -5 4 -43 7 -85 7 -48 0 -95 7 -129
19 -57 20 -159 19 -237 -2 -21 -5 -53 -8 -73 -6 -32 4 -35 2 -35 -22 0 -28 20
-63 57 -97 17 -16 21 -29 18 -54 -5 -42 -22 -61 -35 -40 -7 10 -10 11 -10 3 0
-7 -7 -13 -16 -13 -8 0 -13 -4 -9 -9 12 -21 -17 -21 -33 -1 -16 20 -19 20 -31
7 -9 -12 -19 -14 -37 -7 -19 8 -27 6 -36 -10 -16 -25 -28 -26 -28 -2 0 14 -2
14 -9 3 -9 -14 -52 -21 -126 -21 -48 0 -80 -7 -81 -17 -1 -7 -2 -18 -3 -24 0
-6 -12 -8 -28 -5 -16 3 -33 3 -39 -2 -17 -12 -34 -71 -34 -122 0 -52 -7 -65
-27 -49 -8 8 -13 8 -13 1 0 -6 12 -15 28 -20 l27 -10 -27 -1 c-23 -1 -28 -6
-29 -28 -1 -16 -3 -39 -5 -53 -2 -14 -5 -36 -6 -50 -3 -19 -9 -24 -26 -23 -15
2 -22 -3 -22 -15 0 -13 -2 -14 -9 -4 -4 8 -12 14 -17 14 -21 1 -35 11 -31 22
3 7 -1 20 -9 31 -8 11 -14 13 -14 6 0 -22 -23 -6 -25 17 -2 23 -15 44 -15 24
0 -6 -7 -9 -15 -6 -8 4 -15 12 -15 20 0 17 -12 18 -29 2 -8 -7 -11 -8 -8 -2 3
5 1 29 -5 52 -9 36 -13 41 -33 36 -15 -4 -24 0 -28 10 -4 9 -13 13 -21 10 -10
-4 -17 3 -22 20 -5 20 -9 24 -19 16 -9 -8 -14 -3 -18 19 -5 23 -10 28 -29 24
-19 -4 -24 0 -25 19 -1 12 -14 31 -28 41 -14 10 -25 25 -25 33 0 8 -4 14 -10
14 -5 0 -6 7 -3 17 4 11 3 14 -5 9 -7 -4 -12 -2 -12 3 0 6 -7 11 -15 11 -8 0
-15 9 -15 20 0 18 -16 25 -42 21 -5 0 -8 6 -8 14 0 8 -4 15 -10 15 -5 0 -10
-4 -10 -10 0 -5 -5 -10 -11 -10 -6 0 -9 9 -6 19 3 11 -1 22 -8 25 -8 3 -11 15
-7 32 4 22 2 26 -11 21 -9 -3 -19 -2 -22 3 -4 6 -15 10 -26 10 -14 0 -19 7
-19 25 0 13 -9 40 -19 59 -11 19 -17 37 -13 42 4 4 0 5 -9 2 -12 -5 -19 6 -29
45 -7 29 -17 58 -23 66 -24 30 -21 194 8 343 15 79 31 151 36 161 5 10 7 22 4
27 -4 6 -1 10 5 10 7 0 10 6 7 14 -3 7 0 22 7 32 7 11 16 34 19 51 5 27 48
105 67 123 3 3 13 17 23 32 10 16 21 27 25 25 17 -5 188 161 184 179 -2 8 3
14 11 14 14 0 31 27 42 67 3 12 15 25 26 28 12 4 18 13 15 20 -3 8 4 25 15 39
11 14 16 26 10 26 -18 0 -12 32 11 57 12 13 16 23 9 23 -8 0 -5 10 8 29 11 15
17 31 13 35 -4 4 2 14 12 22 12 8 15 14 7 14 -11 0 -11 3 -1 15 10 12 10 15 0
15 -9 0 -7 7 5 20 13 15 14 20 5 20 -8 0 0 14 18 33 18 18 29 36 26 40 -4 4
-2 7 4 7 7 0 11 5 10 12 -2 7 4 13 12 14 31 3 35 5 22 13 -10 6 -1 15 32 31
25 12 46 28 46 36 0 8 9 14 19 14 23 0 36 16 19 23 -7 2 6 12 30 22 23 9 42
23 42 30 0 13 22 23 73 34 15 3 28 11 28 16 1 13 72 31 134 33 28 1 75 -5 105
-14z m-730 -664 c0 -5 -2 -10 -4 -10 -3 0 -8 5 -11 10 -3 6 -1 10 4 10 6 0 11
-4 11 -10z m458 -190 c-7 -11 -18 -20 -25 -20 -6 0 -20 -3 -30 -7 -16 -6 -16
-5 -3 8 17 17 51 38 63 39 4 0 2 -9 -5 -20z m-60 -86 c12 -4 22 -12 22 -19 0
-7 12 -12 30 -11 l30 1 -23 17 c-25 20 -20 22 18 8 14 -5 23 -14 20 -20 -3 -5
-2 -10 4 -10 5 0 11 6 13 12 4 10 10 10 32 0 15 -6 35 -12 44 -12 25 0 45 -36
32 -60 -13 -24 -25 -28 -142 -40 -105 -11 -179 -32 -217 -61 -13 -11 -30 -19
-37 -19 -8 0 -14 -4 -14 -9 0 -12 -41 -21 -67 -15 -32 9 -35 30 -7 58 14 14
23 30 20 35 -4 6 8 15 26 20 18 5 27 10 21 10 -24 2 -13 17 22 31 23 9 31 16
23 21 -15 10 1 17 52 22 l35 3 -34 9 -33 8 28 13 c32 14 68 17 102 8z m1745
-81 c-7 -2 -19 -2 -25 0 -7 3 -2 5 12 5 14 0 19 -2 13 -5z m-1385 -185 c3 -28
8 -25 -86 -43 l-29 -6 26 55 26 55 30 -18 c19 -11 31 -27 33 -43z m-1637 0 c4
-7 5 -16 3 -20 -12 -18 -104 0 -104 21 0 23 87 22 101 -1z m-176 -93 c-8 -74
3 -98 40 -89 15 4 26 0 32 -11 8 -14 14 -10 35 23 34 51 62 58 88 25 11 -14
20 -29 20 -33 0 -4 7 -11 16 -14 14 -5 16 -1 10 24 -5 28 -4 30 15 20 11 -6
23 -18 26 -26 3 -8 12 -14 19 -14 16 0 34 -39 34 -75 0 -13 10 -41 22 -64 16
-31 25 -38 34 -30 19 16 27 -26 20 -108 -13 -145 -16 -218 -7 -198 11 23 15
-614 5 -676 -11 -64 -24 -33 -24 54 0 45 -3 133 -7 196 l-6 113 -36 -39 c-46
-51 -69 -63 -123 -63 -57 0 -78 16 -113 86 -16 31 -40 69 -53 83 -34 37 -89
156 -106 231 -9 36 -16 99 -16 140 0 86 25 356 39 413 11 44 31 97 38 97 3 0
1 -29 -2 -65z m1751 8 c0 -10 5 -17 12 -15 8 1 11 -2 7 -8 -4 -6 -24 -10 -44
-9 -20 2 -42 0 -48 -4 -6 -4 -14 -3 -17 2 -8 12 23 25 53 22 18 -2 22 1 18 13
-4 10 -1 16 7 16 8 0 13 -8 12 -17z m1095 -16 c-13 -13 -26 -3 -16 12 3 6 11
8 17 5 6 -4 6 -10 -1 -17z m39 3 c0 -5 -2 -10 -4 -10 -3 0 -8 5 -11 10 -3 6
-1 10 4 10 6 0 11 -4 11 -10z m128 -77 c3 -32 -16 -52 -45 -47 -7 1 -21 2 -30
3 -11 1 -14 4 -7 9 6 4 19 22 30 40 23 40 48 38 52 -5z m-283 -23 c3 -6 -1 -7
-9 -4 -18 7 -21 14 -7 14 6 0 13 -4 16 -10z m88 -4 c33 -8 35 -23 5 -29 l-23
-4 23 -8 c12 -4 22 -11 22 -16 0 -11 -3 -11 -35 1 -18 7 -25 15 -21 25 3 8 0
17 -6 21 -7 4 -8 3 -4 -4 8 -13 4 -15 -18 -6 -20 8 -8 36 13 30 9 -2 28 -7 44
-10z m-557 -895 c12 -11 124 -52 124 -45 0 3 5 2 12 -2 37 -23 -112 -32 -152
-9 -14 8 -19 14 -10 15 10 0 7 5 -8 16 -12 8 -22 19 -22 25 0 11 43 12 56 0z
m-188 -37 c42 -14 28 -20 -67 -30 -49 -4 -75 -3 -85 5 -11 10 -16 9 -23 -3 -5
-10 -13 -12 -22 -7 -21 14 -3 31 32 31 18 0 39 5 47 10 19 12 74 9 118 -6z
m902 -90 c0 -8 -5 -12 -10 -9 -6 4 -8 11 -5 16 9 14 15 11 15 -7z m-840 -75
c25 -6 126 -14 226 -17 178 -7 181 -7 218 -35 27 -21 35 -34 31 -48 -11 -33 4
-40 43 -20 35 18 40 18 64 4 19 -12 27 -27 32 -61 7 -53 -1 -92 -20 -92 -8 0
-19 -11 -24 -25 -5 -14 -13 -25 -18 -25 -5 0 -15 -18 -22 -41 -22 -65 -73 -77
-63 -14 4 27 1 35 -16 44 -25 14 -27 34 -6 55 19 18 30 71 17 80 -5 3 -32 -4
-59 -16 -58 -24 -88 -19 -78 13 6 19 3 20 -43 17 -45 -3 -49 -5 -36 -19 15
-17 19 -44 5 -35 -9 6 -278 28 -365 30 -51 2 -59 -1 -66 -20 -5 -12 -17 -24
-27 -28 -16 -7 -16 -9 7 -26 21 -17 22 -20 7 -20 -25 0 -77 -31 -76 -45 4 -31
-1 -38 -17 -24 -13 10 -17 10 -24 -1 -5 -8 -5 -21 0 -31 11 -19 47 -31 56 -18
3 5 11 6 17 2 19 -11 50 -11 71 1 14 8 20 8 23 -1 3 -8 12 -9 26 -4 22 9 56
-13 43 -26 -13 -14 17 -33 42 -26 21 5 24 3 19 -11 -8 -20 0 -21 21 0 15 15
16 15 23 -2 3 -11 3 -20 0 -22 -3 -1 -6 -23 -5 -48 1 -26 -2 -41 -6 -34 -6 9
-10 6 -15 -9 -6 -21 -8 -21 -20 -5 -7 10 -11 24 -8 31 9 22 -13 14 -33 -12
-20 -27 -50 -35 -40 -10 3 8 1 15 -4 15 -6 0 -10 -5 -10 -10 0 -15 -39 -55
-46 -48 -3 4 0 17 7 30 11 21 11 22 -5 9 -21 -17 -33 -7 -16 14 10 12 10 15
-2 15 -8 0 -19 -5 -26 -12 -9 -9 -12 -8 -12 6 0 12 -5 16 -14 13 -15 -6 -30
19 -20 34 3 5 0 9 -5 9 -6 0 -11 -5 -11 -12 0 -14 -40 -58 -52 -58 -4 0 -8 12
-8 26 0 17 -4 23 -12 18 -10 -6 -10 -4 0 8 10 13 10 17 -5 22 -10 4 -19 2 -21
-3 -2 -6 -8 -11 -13 -11 -4 0 -5 8 -2 18 5 14 4 15 -8 6 -8 -6 -23 -14 -33
-18 -14 -5 -16 -3 -9 6 12 16 9 64 -12 156 -7 30 -25 45 -25 21 0 -15 -23 -36
-36 -32 -6 2 -22 -1 -35 -6 l-24 -10 25 -1 c18 0 21 -3 11 -9 -16 -10 -53 -2
-45 10 3 5 -7 21 -21 35 -17 17 -25 34 -22 45 3 11 1 22 -4 25 -11 7 -12 54
-1 72 5 7 16 10 25 6 10 -3 17 -1 17 5 0 6 -7 11 -15 11 -8 0 -15 9 -15 20 0
11 7 23 15 26 9 4 15 19 15 35 0 22 6 30 25 35 13 3 27 14 30 24 4 12 12 16
24 13 10 -3 22 0 25 6 4 6 35 11 69 12 34 0 96 6 137 14 92 16 200 18 260 4z
m310 -203 c0 -11 -19 -15 -25 -6 -3 5 1 10 9 10 9 0 16 -2 16 -4z m-2020 -66
c0 -19 7 -34 20 -42 32 -21 22 -66 -12 -53 -7 3 -14 19 -14 36 -1 17 -6 34
-11 38 -6 3 -16 17 -23 30 -10 19 -10 22 1 16 9 -6 11 -3 6 9 -6 14 -3 15 13
6 13 -7 20 -21 20 -40z m-50 0 c0 -5 -7 -10 -15 -10 -8 0 -15 5 -15 10 0 6 7
10 15 10 8 0 15 -4 15 -10z m1525 -109 c-3 -6 -11 -11 -17 -11 -6 0 -6 6 2 15
14 17 26 13 15 -4z m611 -100 c9 -11 8 -18 -4 -30 -10 -10 -11 -16 -3 -19 6
-2 11 -8 11 -13 0 -6 -5 -7 -10 -4 -6 4 -23 0 -39 -8 -35 -17 -56 -7 -66 30
-5 21 -1 31 16 44 27 20 80 20 95 0z m-256 -18 c0 -3 -5 -13 -10 -23 -8 -16
-8 -18 5 -14 10 4 15 0 15 -10 0 -9 -7 -19 -15 -22 -8 -4 -15 -10 -15 -16 0
-5 6 -6 13 -2 9 5 9 4 0 -6 -15 -16 -24 -10 -26 19 -1 20 -9 25 -34 22 -6 -1
1 11 15 27 22 24 52 38 52 25z m-2271 -439 c2 -2 -10 -4 -27 -4 -18 0 -32 5
-32 10 0 9 47 4 59 -6z m-72 0 c-3 -3 -12 -4 -19 -1 -8 3 -5 6 6 6 11 1 17 -2
13 -5z m1293 -144 c0 -5 -5 -10 -11 -10 -5 0 -7 5 -4 10 3 6 8 10 11 10 2 0 4
-4 4 -10z m-507 -149 c3 -14 1 -18 -9 -14 -8 3 -14 14 -14 25 0 23 16 16 23
-11z m2 -51 c3 -5 1 -10 -4 -10 -6 0 -11 5 -11 10 0 6 2 10 4 10 3 0 8 -4 11
-10z m215 -162 c0 -6 -6 -5 -15 2 -8 7 -15 14 -15 16 0 2 7 1 15 -2 8 -4 15
-11 15 -16z m30 -28 c0 -5 -2 -10 -4 -10 -3 0 -8 5 -11 10 -3 6 -1 10 4 10 6
0 11 -4 11 -10z m155 -40 c3 -5 1 -10 -4 -10 -6 0 -11 5 -11 10 0 6 2 10 4 10
3 0 8 -4 11 -10z m-31 -22 c-3 -4 -14 -8 -24 -8 -10 0 -21 4 -24 8 -3 5 8 9
24 9 16 0 27 -4 24 -9z m1792 -618 c43 -36 108 -92 143 -125 126 -118 316
-375 393 -530 29 -58 94 -252 104 -310 l6 -40 -32 32 c-17 18 -29 37 -25 43 3
5 2 10 -2 10 -5 0 -19 28 -33 63 -13 34 -31 69 -39 78 -35 36 -51 60 -47 68 3
4 -4 15 -15 24 -10 9 -19 28 -19 41 0 13 -7 29 -15 36 -8 7 -15 18 -15 25 0
17 -36 25 -50 11 -8 -8 -10 -7 -5 7 5 12 2 17 -10 17 -12 0 -15 -5 -10 -17 4
-10 9 -43 12 -73 2 -30 8 -59 12 -65 9 -11 20 -51 28 -98 2 -16 11 -49 18 -75
8 -25 12 -49 9 -54 -3 -4 0 -8 5 -8 6 0 11 -4 11 -10 0 -5 -5 -9 -11 -7 -22 4
-19 -20 3 -31 17 -8 18 -11 7 -11 -20 -1 -33 -29 -20 -45 4 -6 11 -26 13 -44
4 -29 2 -32 -16 -30 -12 2 -23 12 -26 23 -3 11 -14 21 -24 23 -21 4 -65 51
-66 70 0 6 -4 12 -8 12 -5 0 -14 16 -22 35 -8 19 -18 35 -22 35 -5 0 -6 5 -3
10 3 6 2 10 -3 10 -5 0 -15 12 -23 28 -8 15 -16 29 -19 32 -10 10 -41 65 -47
83 -3 9 -12 17 -19 17 -8 0 -14 9 -14 19 0 11 -6 26 -14 33 -7 8 -17 24 -20
36 -4 12 -12 22 -17 22 -5 0 -9 5 -9 11 0 12 -49 84 -79 116 -12 12 -21 25
-21 29 0 11 -87 94 -99 94 -6 0 -11 8 -12 18 0 10 -3 12 -6 5 -2 -7 -9 -13
-14 -13 -6 0 -9 6 -8 13 4 34 -2 56 -14 51 -8 -3 -20 3 -28 12 -9 12 -10 15
-1 10 8 -5 12 -1 12 13 0 11 -5 23 -11 26 -6 4 -8 13 -5 21 3 8 1 14 -4 14 -6
0 -10 -9 -10 -20 0 -11 -5 -20 -10 -20 -6 0 -8 -12 -4 -27 l5 -28 -19 23 c-20
21 -39 31 -28 13 3 -5 -1 -12 -10 -15 -13 -5 -15 -1 -9 21 4 16 4 25 0 21 -9
-9 -47 30 -40 41 3 5 14 7 24 4 16 -4 19 -1 14 18 -8 30 15 16 27 -17 5 -13
16 -24 24 -24 10 0 13 6 10 15 -4 8 -11 12 -16 9 -7 -5 -7 -1 0 11 7 13 6 24
-1 36 -9 14 -7 22 8 39 12 13 20 38 21 68 1 26 3 51 3 55 1 4 7 2 15 -5 8 -7
12 -16 9 -21 -2 -4 3 -10 11 -13 9 -3 16 -13 16 -20 0 -8 9 -25 20 -37 11 -12
18 -28 15 -36 -3 -9 -3 -13 0 -9 6 6 69 -49 71 -62 2 -10 18 -45 26 -55 33
-41 78 -106 77 -111 -3 -10 24 -46 65 -86 27 -28 37 -44 33 -59 -4 -16 -3 -18
8 -9 9 8 15 8 20 0 3 -6 11 -8 16 -5 5 4 9 2 9 -4 0 -5 -4 -12 -10 -16 -5 -3
-6 -13 -3 -21 4 -11 8 -12 13 -4 4 6 11 12 16 13 10 2 7 30 -8 66 -6 14 -12
31 -12 36 -1 6 -5 25 -10 44 -4 18 -9 46 -10 62 -1 15 -10 37 -19 47 -9 10
-17 24 -17 30 0 7 -4 12 -10 12 -5 0 -10 8 -10 17 0 9 -6 24 -14 32 -22 25
-67 111 -59 112 4 0 -2 4 -14 9 -13 5 -20 15 -18 22 3 8 -18 38 -47 68 -29 30
-68 74 -86 98 l-33 42 59 -42 c32 -24 94 -72 138 -108z m-3396 -295 c0 -5 -5
-3 -10 5 -5 8 -10 20 -10 25 0 6 5 3 10 -5 5 -8 10 -19 10 -25z m26 -53 c-4
-3 -11 0 -16 8 -15 24 -11 33 6 15 9 -9 13 -19 10 -23z m53 -82 c11 -24 11
-24 -3 -6 -9 11 -16 24 -16 30 0 12 5 7 19 -24z m2171 -40 c0 -5 -2 -10 -4
-10 -3 0 -8 5 -11 10 -3 6 -1 10 4 10 6 0 11 -4 11 -10z m-2097 -50 c3 -11 4
-20 3 -20 -2 0 -11 9 -21 20 -15 17 -16 20 -3 20 9 0 18 -9 21 -20z m2183
-116 c-4 -9 -9 -15 -11 -12 -3 3 -3 13 1 22 4 9 9 15 11 12 3 -3 3 -13 -1 -22z
m618 -95 c53 -31 76 -75 76 -147 0 -39 -4 -62 -12 -65 -10 -3 -13 13 -14 60
-1 50 -6 70 -21 84 -18 19 -20 19 -53 2 -26 -14 -36 -25 -38 -48 -3 -30 -32
-72 -32 -47 0 9 -8 9 -30 -3 -46 -24 -67 -20 -75 15 -9 42 29 118 74 147 42
29 80 29 125 2z m-580 -11 c-3 -5 -12 -4 -20 3 -19 16 -18 18 6 12 11 -3 17
-9 14 -15z m43 -14 c-3 -3 -12 -4 -19 -1 -8 3 -5 6 6 6 11 1 17 -2 13 -5z m7
-57 c-9 -5 -18 -6 -21 -3 -4 3 -1 6 5 6 7 0 12 8 12 18 0 14 2 15 10 2 6 -10
4 -17 -6 -23z m41 -79 c5 4 5 1 1 -5 -10 -18 -23 -16 -30 3 -5 13 -4 14 7 6 8
-7 18 -8 22 -4z m351 -62 c9 -19 9 -26 0 -29 -7 -3 -17 8 -23 24 -14 37 6 41
23 5z m1340 -953 c0 -10 3 -43 7 -73 4 -33 3 -47 -2 -35 -13 31 -24 125 -14
125 5 0 9 -8 9 -17z m-948 -256 c19 -20 52 -86 52 -104 0 -5 5 -25 11 -46 11
-41 3 -127 -12 -127 -5 0 -7 11 -3 25 7 29 8 38 6 78 -2 30 -28 38 -35 10 -4
-15 -5 -14 -6 3 0 11 4 25 11 32 9 9 7 12 -10 12 -32 0 -37 -3 -34 -19 2 -8
-2 -17 -8 -21 -16 -10 -26 -90 -11 -90 7 0 9 -5 5 -12 -4 -6 1 -17 11 -25 18
-12 18 -13 -2 -13 -42 0 -113 118 -113 187 0 32 35 94 63 112 41 26 49 26 75
-2z m-3318 -7 c0 -5 -5 -10 -11 -10 -5 0 -7 5 -4 10 3 6 8 10 11 10 2 0 4 -4
4 -10z m3451 -1529 c29 -29 39 -61 19 -61 -5 0 -10 5 -10 10 0 6 -5 10 -10 10
-6 0 -10 -8 -8 -17 2 -11 -6 -22 -19 -28 -13 -5 -23 -15 -23 -22 0 -7 -7 -13
-15 -13 -8 0 -15 6 -15 14 0 8 -7 16 -14 19 -10 4 -13 1 -10 -7 3 -8 1 -17 -4
-20 -6 -3 -8 -15 -5 -26 7 -26 -13 -26 -27 0 -6 11 -17 20 -25 20 -38 0 -1
100 47 130 47 28 84 26 119 -9z m789 -841 c0 -5 -7 -10 -15 -10 -8 0 -15 5
-15 10 0 6 7 10 15 10 8 0 15 -4 15 -10z"/>
<path d="M1775 10660 c3 -5 8 -10 11 -10 2 0 4 5 4 10 0 6 -5 10 -11 10 -5 0
-7 -4 -4 -10z"/>
<path d="M1383 10563 c-3 -10 -7 -21 -9 -24 -2 -3 10 -6 26 -6 31 0 38 15 18
35 -17 17 -28 15 -35 -5z"/>
<path d="M3420 8699 c0 -5 5 -7 10 -4 6 3 10 8 10 11 0 2 -4 4 -10 4 -5 0 -10
-5 -10 -11z"/>
<path d="M1063 8088 c-18 -11 -33 -24 -33 -28 0 -5 -7 -16 -17 -25 -9 -9 -18
-38 -21 -65 -4 -41 -2 -49 15 -54 11 -4 36 0 55 8 48 21 76 90 59 147 -13 44
-14 45 -58 17z"/>
<path d="M1080 7874 c0 -20 21 -84 29 -89 5 -3 3 16 -5 42 -14 45 -24 66 -24
47z"/>
<path d="M845 7689 c25 -31 58 -58 69 -59 13 0 -23 38 -59 63 l-30 21 20 -25z"/>
<path d="M1072 7678 c5 -16 75 -55 83 -46 3 3 3 18 -1 32 -5 22 -9 24 -21 15
-10 -9 -17 -9 -25 -1 -16 16 -41 15 -36 0z"/>
<path d="M3370 6980 c0 -5 5 -10 10 -10 6 0 10 5 10 10 0 6 -4 10 -10 10 -5 0
-10 -4 -10 -10z"/>
<path d="M2676 6665 c-3 -8 -1 -17 3 -20 5 -3 11 2 15 10 3 8 1 17 -3 20 -5 3
-11 -2 -15 -10z"/>
<path d="M2537 6656 c-4 -10 -5 -21 -2 -24 9 -9 17 6 13 25 -3 17 -4 17 -11
-1z"/>
<path d="M2878 6603 c6 -2 12 -12 11 -21 0 -11 -2 -12 -6 -4 -2 6 -12 12 -21
12 -15 0 -15 -1 0 -17 14 -13 20 -14 33 -3 12 10 13 16 4 26 -6 8 -17 14 -23
13 -7 0 -6 -2 2 -6z"/>
<path d="M2820 6570 c0 -5 5 -10 10 -10 6 0 10 5 10 10 0 6 -4 10 -10 10 -5 0
-10 -4 -10 -10z"/>
<path d="M3260 6591 c0 -6 4 -13 10 -16 6 -3 7 1 4 9 -7 18 -14 21 -14 7z"/>
<path d="M3016 6593 c-6 -14 -5 -15 5 -6 7 7 10 15 7 18 -3 3 -9 -2 -12 -12z"/>
<path d="M3970 4448 c0 -9 5 -20 10 -23 13 -8 13 5 0 25 -8 13 -10 13 -10 -2z"/>
<path d="M3830 4382 c0 -5 7 -13 16 -16 10 -4 14 -1 12 6 -5 15 -28 23 -28 10z"/>
<path d="M3446 1165 c-3 -8 -1 -15 4 -15 6 0 10 7 10 15 0 8 -2 15 -4 15 -2 0
-6 -7 -10 -15z"/>
</g>
</svg>
