<svg width="48" height="49" viewBox="0 0 48 49" fill="none" xmlns="http://www.w3.org/2000/svg">
<mask id="mask0_2379_16966" style="mask-type:alpha" maskUnits="userSpaceOnUse" x="0" y="0" width="48" height="49">
<rect y="0.600098" width="48" height="48" fill="#D9D9D9"/>
</mask>
<g mask="url(#mask0_2379_16966)">
<path d="M15.55 33.1884L9.6923 29.9077L11.3038 28.3154L16.2 29.0154L24.8615 20.3347L9 11.7308L11.0077 9.7039L30.5038 14.7616L34.8115 10.3347C35.3012 9.84497 35.8717 9.6001 36.5229 9.6001C37.1742 9.6001 37.7614 9.84497 38.2845 10.3347C38.7742 10.8373 39.0191 11.4174 39.0191 12.075C39.0191 12.7327 38.7742 13.3065 38.2845 13.7962L34.0153 18.2038L39.0345 37.6807L36.9769 39.7076L28.3538 23.8961L19.7307 32.4884L20.4615 37.4346L18.8308 39.0154L15.55 33.1884Z" stroke="black" stroke-width="1.3"/>
</g>
</svg>
