<svg width="48" height="49" viewBox="0 0 48 49" fill="none" xmlns="http://www.w3.org/2000/svg">
<mask id="mask0_3823_7072" style="mask-type:alpha" maskUnits="userSpaceOnUse" x="0" y="0" width="48" height="49">
<rect y="0.0998535" width="48" height="48" fill="#D9D9D9"/>
</mask>
<g mask="url(#mask0_3823_7072)">
<path d="M10.6194 40.8998C9.69333 40.8998 8.89195 40.5615 8.21525 39.8848C7.53855 39.2081 7.2002 38.4067 7.2002 37.4806V10.719C7.2002 9.79294 7.53855 8.99156 8.21525 8.31486C8.89195 7.63816 9.69333 7.2998 10.6194 7.2998H37.381C38.3071 7.2998 39.1084 7.63816 39.7851 8.31486C40.4618 8.99156 40.8002 9.79294 40.8002 10.719V37.4806C40.8002 38.4067 40.4618 39.2081 39.7851 39.8848C39.1084 40.5615 38.3071 40.8998 37.381 40.8998H10.6194ZM9.38865 10.719V37.4806C9.38865 37.7883 9.51685 38.0703 9.77325 38.3268C10.0297 38.5832 10.3117 38.7114 10.6194 38.7114H37.381C37.6887 38.7114 37.9707 38.5832 38.2271 38.3268C38.4835 38.0703 38.6117 37.7883 38.6117 37.4806V10.719C38.6117 10.4113 38.4835 10.1293 38.2271 9.87285C37.9707 9.61645 37.6887 9.48825 37.381 9.48825H33.4156V21.9075L29.0386 19.2844L24.7002 21.9075V9.48825H10.6194C10.3117 9.48825 10.0297 9.61645 9.77325 9.87285C9.51685 10.1293 9.38865 10.4113 9.38865 10.719Z" fill="#C57654"/>
</g>
</svg>
