<svg width="38" height="52" viewBox="0 0 38 52" fill="none" xmlns="http://www.w3.org/2000/svg">
<path d="M19 51.2535C17.8423 51.2535 16.876 50.9189 16.101 50.2497C15.326 49.5804 14.9423 48.7285 14.95 47.6939H12.7461C12.1702 47.6939 11.6416 47.4533 11.1603 46.972C10.6791 46.4907 10.4385 45.9621 10.4385 45.3862V36.3343C7.13845 34.492 4.61538 32.0593 2.86923 29.0362C1.12308 26.0131 0.25 22.7842 0.25 19.3496C0.25 14.1073 2.06442 9.67174 5.69327 6.04289C9.32212 2.41404 13.7577 0.599609 19 0.599609C24.2423 0.599609 28.6779 2.41404 32.3067 6.04289C35.9356 9.67174 37.75 14.1073 37.75 19.3496C37.75 22.7842 36.8805 26.0143 35.1414 29.0398C33.4024 32.0653 30.8758 34.4968 27.5616 36.3343V45.3862C27.5616 45.9621 27.3209 46.4907 26.8397 46.972C26.3584 47.4533 25.8298 47.6939 25.2539 47.6939H23.05C23.0577 48.7285 22.6741 49.5804 21.8991 50.2497C21.1241 50.9189 20.1577 51.2535 19 51.2535ZM12.7461 45.3862H25.2539V42.2016H12.7461V45.3862ZM12.7461 39.8938H25.2539V36.8362H12.7461V39.8938ZM12.0711 34.5285H17.9096V24.1381L11.5289 17.7573L13.0461 16.24L19 22.2515L24.9539 16.24L26.4711 17.7573L20.0904 24.1381V34.5285H25.9289C28.775 33.2054 31.0721 31.1842 32.8202 28.465C34.5683 25.7458 35.4423 22.7074 35.4423 19.35C35.4423 14.769 33.8471 10.8833 30.6567 7.69289C27.4663 4.50249 23.5808 2.90728 19 2.90728C14.4192 2.90728 10.5337 4.50249 7.34327 7.69289C4.15287 10.8833 2.55768 14.769 2.55768 19.35C2.55768 22.7074 3.43172 25.7458 5.17982 28.465C6.92787 31.1842 9.22497 33.2054 12.0711 34.5285Z" fill="#C57654"/>
</svg>
