<svg width="48" height="49" viewBox="0 0 48 49" fill="none" xmlns="http://www.w3.org/2000/svg">
<mask id="mask0_2379_16976" style="mask-type:alpha" maskUnits="userSpaceOnUse" x="0" y="0" width="48" height="49">
<rect y="0.600098" width="48" height="48" fill="#D9D9D9"/>
</mask>
<g mask="url(#mask0_2379_16976)">
<path d="M14.2962 42.4001C14.0359 42.4001 13.8138 42.3294 13.6298 42.1881C13.4458 42.0467 13.3538 41.863 13.3538 41.6368V37.7001C12.541 37.4668 11.7788 36.8348 11.0673 35.8041C10.3558 34.7735 10 33.6452 10 32.4193V13.5001C10 11.4188 11.1292 9.91518 13.3876 8.98915C15.6461 8.06311 19.3037 7.6001 24.3603 7.6001C29.3714 7.6001 33.0141 8.07345 35.2885 9.02015C37.5628 9.96685 38.7 11.4602 38.7 13.5001V32.4193C38.7 33.6452 38.3442 34.7735 37.6327 35.8041C36.9212 36.8348 36.159 37.4668 35.3461 37.7001V41.6368C35.3461 41.863 35.2542 42.0467 35.0702 42.1881C34.8862 42.3294 34.6641 42.4001 34.4039 42.4001H34.2293C33.9854 42.4001 33.7631 42.3294 33.5625 42.1881C33.3619 42.0467 33.2616 41.852 33.2616 41.604V38.3385H15.4385V41.604C15.4385 41.852 15.3394 42.0467 15.1413 42.1881C14.9431 42.3294 14.7114 42.4001 14.4462 42.4001H14.2962ZM11.7884 24.4808H36.9116V14.5808H11.7884V24.4808ZM17.0093 33.6501C17.6391 33.6501 18.1667 33.4313 18.5923 32.9938C19.0179 32.5563 19.2308 32.0226 19.2308 31.3928C19.2308 30.7631 19.012 30.2267 18.5745 29.7837C18.137 29.3408 17.6033 29.1193 16.9736 29.1193C16.3438 29.1193 15.8074 29.3468 15.3644 29.8016C14.9215 30.2565 14.7 30.7988 14.7 31.4286C14.7 32.0584 14.9274 32.5861 15.3823 33.0117C15.8372 33.4373 16.3795 33.6501 17.0093 33.6501ZM31.7264 33.6501C32.3563 33.6501 32.8926 33.4313 33.3356 32.9938C33.7785 32.5563 34 32.0226 34 31.3928C34 30.7631 33.7726 30.2267 33.3177 29.7837C32.8628 29.3408 32.3205 29.1193 31.6908 29.1193C31.0609 29.1193 30.5333 29.3468 30.1077 29.8016C29.6821 30.2565 29.4693 30.7988 29.4693 31.4286C29.4693 32.0584 29.688 32.5861 30.1255 33.0117C30.563 33.4373 31.0967 33.6501 31.7264 33.6501ZM11.5962 12.7924H36.9654C36.4397 11.6514 35.1231 10.7988 33.0154 10.2347C30.9077 9.6706 28.0064 9.38855 24.3115 9.38855C20.3243 9.38855 17.284 9.65841 15.1904 10.1981C13.0968 10.7379 11.8987 11.6027 11.5962 12.7924ZM15.85 36.5501H32.8687C33.9973 36.5501 34.9532 36.1204 35.7366 35.261C36.5199 34.4015 36.9116 33.4138 36.9116 32.2977V26.2693H11.7884V32.3085C11.7884 33.4311 12.1801 34.4187 12.9634 35.2712C13.7468 36.1238 14.709 36.5501 15.85 36.5501Z" fill="#1C1B1F"/>
</g>
</svg>
