<svg width="18" height="18" viewBox="0 0 18 18" fill="none" xmlns="http://www.w3.org/2000/svg">
<path d="M16.0791 17.0898C14.1582 17.0898 12.2731 16.6851 10.4238 15.8756C8.57446 15.0661 6.89285 13.9083 5.37896 12.4023C3.86507 10.9023 2.70338 9.22024 1.8939 7.35611C1.08442 5.49199 0.679688 3.6034 0.679688 1.69036C0.679688 1.31052 0.793368 1.00495 1.02073 0.773675C1.24808 0.542398 1.55167 0.426758 1.93152 0.426758H5.80379C6.17879 0.426758 6.49326 0.526091 6.74719 0.724758C7.00112 0.923439 7.16854 1.19549 7.24946 1.5409L7.83915 4.61153C7.89047 4.93158 7.88156 5.21314 7.81242 5.4562C7.74328 5.69927 7.61601 5.90172 7.43061 6.06355L5.22227 8.1487C5.45476 8.55025 5.7339 8.94925 6.05969 9.3457C6.38547 9.74213 6.7579 10.1499 7.17698 10.569C7.56224 10.9403 7.93875 11.2761 8.3065 11.5762C8.67425 11.8763 9.03717 12.1348 9.39525 12.3515L11.6634 10.1903C11.8608 9.99286 12.0781 9.86152 12.3151 9.7963C12.5521 9.73108 12.8107 9.72806 13.0909 9.78724L16.1987 10.4729C16.5502 10.5756 16.8267 10.741 17.0284 10.9693C17.2301 11.1976 17.331 11.4844 17.331 11.8298V15.8262C17.331 16.206 17.2153 16.5116 16.984 16.7429C16.7528 16.9742 16.4511 17.0898 16.0791 17.0898Z" fill="#1C1B1F"/>
</svg>
