<svg width="48" height="48" viewBox="0 0 48 48" fill="none" xmlns="http://www.w3.org/2000/svg">
<mask id="mask0_2993_5331" style="mask-type:alpha" maskUnits="userSpaceOnUse" x="0" y="0" width="48" height="48">
<rect width="48" height="48" fill="#D9D9D9"/>
</mask>
<g mask="url(#mask0_2993_5331)">
<path d="M16.6002 35.0886L24.0002 29.4579L31.4002 35.0886L28.5502 25.9809L35.9117 20.8002H26.9025L24.0002 11.304L21.0986 20.8002H12.1271L19.4386 25.9809L16.6002 35.0886ZM23.9839 42.8002C21.3965 42.8002 18.9663 42.3025 16.6932 41.3072C14.4201 40.3119 12.4344 38.9659 10.7361 37.2691C9.03791 35.5724 7.6907 33.5863 6.6945 31.3109C5.6983 29.0355 5.2002 26.6009 5.2002 24.0069C5.2002 21.4088 5.69883 18.9661 6.6961 16.6789C7.6934 14.3918 9.04518 12.3945 10.7514 10.6872C12.4577 8.97991 14.4426 7.63858 16.7059 6.66324C18.9693 5.68788 21.3911 5.2002 23.9713 5.2002C26.5714 5.2002 29.0201 5.68743 31.3174 6.6619C33.6148 7.63636 35.6135 8.97671 37.3135 10.6829C39.0136 12.3892 40.353 14.3876 41.3319 16.6782C42.3108 18.9688 42.8002 21.4162 42.8002 24.0206C42.8002 26.6173 42.313 29.0438 41.3385 31.3001C40.364 33.5565 39.0239 35.5382 37.3181 37.2452C35.6123 38.9522 33.6144 40.3048 31.3244 41.3029C29.0345 42.3011 26.5876 42.8002 23.9839 42.8002ZM24.0002 40.6117C28.5968 40.6117 32.5145 38.9904 35.7534 35.7476C38.9923 32.5049 40.6117 28.5891 40.6117 24.0002C40.6117 19.4036 38.9923 15.4859 35.7534 12.247C32.5145 9.00809 28.5968 7.38864 24.0002 7.38864C19.4113 7.38864 15.4955 9.00809 12.2527 12.247C9.01001 15.4859 7.38865 19.4036 7.38865 24.0002C7.38865 28.5891 9.01001 32.5049 12.2527 35.7476C15.4955 38.9904 19.4113 40.6117 24.0002 40.6117Z" fill="#C57654"/>
</g>
</svg>
