<svg width="66" height="59" viewBox="0 0 66 59" fill="none" xmlns="http://www.w3.org/2000/svg">
<path d="M0 28.9001C0 17.3001 3.86667 9.10008 11.6 4.30007C15.2 2.03341 19.1333 0.833413 23.4 0.700073V19.5001C19.5333 19.5001 16.8 21.0334 15.2 24.1001C14.6667 25.4334 14.2667 27.0334 14 28.9001H28.2V56.9001L0 58.1001V28.9001ZM37.4 28.9001C37.4 17.4334 41.3333 9.23341 49.2 4.30007C52.5333 2.16674 56.4667 0.966744 61 0.700073V19.5001C56.8667 19.5001 54.1333 21.0334 52.8 24.1001C52 25.4334 51.6 27.0334 51.6 28.9001H65.6V56.9001L37.4 58.1001V28.9001Z" fill="#992E00"/>
</svg>
