<svg width="12" height="13" viewBox="0 0 12 13" fill="none" xmlns="http://www.w3.org/2000/svg">
<path id="download" d="M6.14581 9.60577L2.53042 5.99038L3.41183 5.18269L5.54165 7.3125V0H6.74998V7.3125L8.87979 5.18269L9.76121 5.99038L6.14581 9.60577ZM2.04856 12.6667C1.56166 12.6667 1.15406 12.5015 0.82575 12.1711C0.497459 11.8407 0.333313 11.4322 0.333313 10.9455V9.92629H1.54165V10.9455C1.54165 11.0737 1.59506 11.1912 1.7019 11.2981C1.80874 11.4049 1.92626 11.4583 2.05446 11.4583H10.2788C10.407 11.4583 10.5245 11.4049 10.6314 11.2981C10.7382 11.1912 10.7916 11.0737 10.7916 10.9455V9.92629H12V10.9455C12 11.436 11.8347 11.8455 11.5042 12.174C11.1736 12.5024 10.7649 12.6667 10.278 12.6667H2.04856Z" fill="#992E00"/>
</svg>
