<svg width="13" height="14" viewBox="0 0 13 14" fill="none" xmlns="http://www.w3.org/2000/svg">
<path d="M6.3125 10.2054L2.6971 6.58998L3.57852 5.7823L5.70833 7.91211V0.599609H6.91667V7.91211L9.04648 5.7823L9.9279 6.58998L6.3125 10.2054ZM2.21525 13.2663C1.72835 13.2663 1.32074 13.1011 0.992437 12.7707C0.664146 12.4403 0.5 12.0318 0.5 11.5451V10.5259H1.70833V11.5451C1.70833 11.6733 1.76175 11.7908 1.86858 11.8977C1.97543 12.0045 2.09295 12.0579 2.22115 12.0579H10.4455C10.5737 12.0579 10.6912 12.0045 10.7981 11.8977C10.9049 11.7908 10.9583 11.6733 10.9583 11.5451V10.5259H12.1667V11.5451C12.1667 12.0356 12.0014 12.4451 11.6709 12.7736C11.3403 13.102 10.9316 13.2663 10.4447 13.2663H2.21525Z" fill="#F2F1ED"/>
</svg>
