<svg width="46" height="44" viewBox="0 0 46 44" fill="none" xmlns="http://www.w3.org/2000/svg">
<g id="Social Media / Instagram">
<g id="Group 15">
<path id="Vector" d="M19.172 22.0564C19.172 20.0296 20.8887 18.3862 23.007 18.3862C25.1253 18.3862 26.8429 20.0296 26.8429 22.0564C26.8429 24.0831 25.1253 25.7266 23.007 25.7266C20.8887 25.7266 19.172 24.0831 19.172 22.0564ZM17.0983 22.0564C17.0983 25.1788 19.7436 27.7098 23.007 27.7098C26.2703 27.7098 28.9156 25.1788 28.9156 22.0564C28.9156 18.934 26.2703 16.403 23.007 16.403C19.7436 16.403 17.0983 18.934 17.0983 22.0564ZM27.7687 16.1788C27.7686 16.4401 27.8495 16.6956 28.0011 16.9129C28.1528 17.1302 28.3684 17.2997 28.6206 17.3998C28.8729 17.4999 29.1505 17.5261 29.4184 17.4752C29.6863 17.4244 29.9324 17.2986 30.1256 17.1139C30.3188 16.9292 30.4504 16.6939 30.5037 16.4376C30.5571 16.1814 30.5299 15.9157 30.4255 15.6743C30.3211 15.4328 30.1442 15.2264 29.9172 15.0811C29.6901 14.9359 29.4232 14.8583 29.1501 14.8582H29.1496C28.7835 14.8583 28.4325 14.9975 28.1735 15.2451C27.9146 15.4928 27.769 15.8286 27.7687 16.1788ZM18.3582 31.0181C17.2363 30.9692 16.6266 30.7904 16.2213 30.6393C15.6841 30.4392 15.3008 30.2009 14.8978 29.8158C14.4947 29.4307 14.2453 29.0643 14.037 28.5503C13.8791 28.1628 13.6922 27.5791 13.6412 26.5057C13.5854 25.3452 13.5743 24.9966 13.5743 22.0565C13.5743 19.1163 13.5863 18.7687 13.6412 17.6072C13.6923 16.5338 13.8805 15.9513 14.037 15.5626C14.2462 15.0486 14.4953 14.6819 14.8978 14.2962C15.3002 13.9106 15.6832 13.6719 16.2213 13.4727C16.6264 13.3216 17.2363 13.1428 18.3582 13.094C19.5711 13.0406 19.9355 13.0299 23.007 13.0299C26.0785 13.0299 26.4432 13.0415 27.6572 13.094C28.779 13.1429 29.3878 13.323 29.794 13.4727C30.3313 13.6719 30.7146 13.9112 31.1176 14.2962C31.5206 14.6813 31.7692 15.0486 31.9783 15.5626C32.1363 15.9502 32.3232 16.5338 32.3742 17.6072C32.4299 18.7687 32.4411 19.1163 32.4411 22.0565C32.4411 24.9966 32.4299 25.3443 32.3742 26.5057C32.3231 27.5791 32.1353 28.1626 31.9783 28.5503C31.7692 29.0643 31.5201 29.4311 31.1176 29.8158C30.7151 30.2005 30.3313 30.4392 29.794 30.6393C29.389 30.7905 28.779 30.9693 27.6572 31.0181C26.4442 31.0714 26.0799 31.0821 23.007 31.0821C19.9341 31.0821 19.5708 31.0714 18.3582 31.0181ZM18.2629 11.1133C17.0379 11.1667 16.2009 11.3525 15.4699 11.6247C14.7128 11.9057 14.0719 12.2828 13.4315 12.8946C12.7911 13.5064 12.398 14.1205 12.1042 14.8449C11.8198 15.5448 11.6256 16.3452 11.5698 17.5173C11.5131 18.6912 11.5001 19.0665 11.5001 22.0564C11.5001 25.0463 11.5131 25.4216 11.5698 26.5955C11.6256 27.7676 11.8198 28.568 12.1042 29.2679C12.398 29.9918 12.7912 30.6067 13.4315 31.2182C14.0718 31.8297 14.7128 32.2063 15.4699 32.4881C16.2023 32.7603 17.0379 32.9461 18.2629 32.9995C19.4905 33.0529 19.8821 33.0662 23.007 33.0662C26.1319 33.0662 26.5241 33.0537 27.7511 32.9995C28.9761 32.9461 29.8126 32.7603 30.5441 32.4881C31.3007 32.2063 31.9421 31.83 32.5825 31.2182C33.2229 30.6064 33.6152 29.9918 33.9097 29.2679C34.1942 28.568 34.3893 27.7675 34.4442 26.5955C34.5 25.4207 34.513 25.0463 34.513 22.0564C34.513 19.0665 34.5 18.6912 34.4442 17.5173C34.3884 16.3451 34.1942 15.5443 33.9097 14.8449C33.6152 14.121 33.2219 13.5073 32.5825 12.8946C31.9431 12.2818 31.3007 11.9057 30.545 11.6247C29.8126 11.3525 28.976 11.1658 27.752 11.1133C26.5251 11.0599 26.1328 11.0466 23.0079 11.0466C19.883 11.0466 19.4905 11.059 18.2629 11.1133Z" fill="black"/>
</g>
</g>
</svg>
