<svg width="40" height="40" viewBox="0 0 40 40" fill="none" xmlns="http://www.w3.org/2000/svg">
<g id="award">
<path id="Vector" d="M19.9999 24.9998C26.4432 24.9998 31.6666 19.7765 31.6666 13.3332C31.6666 6.88985 26.4432 1.6665 19.9999 1.6665C13.5566 1.6665 8.33325 6.88985 8.33325 13.3332C8.33325 19.7765 13.5566 24.9998 19.9999 24.9998Z" stroke="#C57654" stroke-width="2" stroke-linecap="round" stroke-linejoin="round"/>
<path id="Vector_2" d="M20.0001 19.1667C23.2217 19.1667 25.8334 16.555 25.8334 13.3333C25.8334 10.1117 23.2217 7.5 20.0001 7.5C16.7784 7.5 14.1667 10.1117 14.1667 13.3333C14.1667 16.555 16.7784 19.1667 20.0001 19.1667Z" stroke="#C57654" stroke-width="2" stroke-linecap="round" stroke-linejoin="round"/>
<path id="Vector_3" d="M13.6834 23.15L11.6667 38.3333L20.0001 33.3333L28.3334 38.3333L26.3167 23.1333" stroke="#C57654" stroke-width="2" stroke-linecap="round" stroke-linejoin="round"/>
</g>
</svg>
