<svg width="46" height="44" viewBox="0 0 46 44" fill="none" id="linkedin" xmlns="http://www.w3.org/2000/svg">
<path d="M17.7087 30.9159V19.0303H13.5822V30.9159H17.7091H17.7087ZM15.6463 17.4077C17.085 17.4077 17.9807 16.4951 17.9807 15.3545C17.9537 14.1879 17.085 13.3007 15.6736 13.3007C14.2613 13.3007 13.3389 14.1879 13.3389 15.3544C13.3389 16.495 14.2343 17.4076 15.6192 17.4076H15.6459L15.6463 17.4077ZM19.9928 30.9159H24.1189V24.2791C24.1189 23.9244 24.1459 23.5687 24.2549 23.3153C24.5531 22.6053 25.232 21.8703 26.3722 21.8703C27.865 21.8703 28.4625 22.9601 28.4625 24.5581V30.9159H32.5886V24.101C32.5886 20.4504 30.5531 18.7516 27.8383 18.7516C25.6125 18.7516 24.6349 19.9426 24.0918 20.7538H24.1193V19.0307H19.993C20.0468 20.1457 19.9926 30.9163 19.9926 30.9163L19.9928 30.9159Z" fill="black"/>
</svg>
