<svg width="50" height="62" viewBox="0 0 50 62" fill="none" xmlns="http://www.w3.org/2000/svg">
<path d="M16.7023 3.55709V0.274414H33.2946V3.55709H16.7023ZM23.3946 38.2648H26.6773V22.0186H23.3946V38.2648ZM24.9984 61.4571C21.5166 61.4571 18.2656 60.7974 15.2452 59.4781C12.2248 58.1588 9.58281 56.3769 7.31921 54.1325C5.05556 51.8881 3.27369 49.2461 1.97359 46.2065C0.673487 43.1669 0.0234375 39.9158 0.0234375 36.4533C0.0234375 32.9907 0.673487 29.7493 1.97359 26.7289C3.27369 23.7085 5.05556 21.0665 7.31921 18.8029C9.58281 16.5393 12.2248 14.7574 15.2452 13.4572C18.2656 12.1571 21.5166 11.5071 24.9984 11.5071C28.1112 11.5071 31.0538 12.0379 33.8263 13.0994C36.5988 14.161 39.1023 15.6725 41.3369 17.634L44.7869 14.0513L47.1869 16.4513L43.6042 19.959C45.5812 22.109 47.1369 24.5542 48.2715 27.2946C49.4061 30.035 49.9734 33.0975 49.9734 36.4821C49.9734 39.9254 49.3234 43.1669 48.0233 46.2065C46.7232 49.2461 44.9413 51.8881 42.6777 54.1325C40.4141 56.3769 37.7721 58.1588 34.7517 59.4781C31.7313 60.7974 28.4802 61.4571 24.9984 61.4571ZM24.9903 58.1744C31.015 58.1744 36.1379 56.0666 40.359 51.8509C44.5802 47.6351 46.6908 42.5149 46.6908 36.4903C46.6908 30.4656 44.5829 25.3427 40.3672 21.1215C36.1515 16.9003 31.0313 14.7898 25.0066 14.7898C18.9819 14.7898 13.859 16.8976 9.63784 21.1134C5.41669 25.3291 3.30611 30.4493 3.30611 36.4739C3.30611 42.4986 5.41396 47.6215 9.62966 51.8427C13.8454 56.0638 18.9656 58.1744 24.9903 58.1744Z" fill="#C57654"/>
</svg>
