<svg width="48" height="49" viewBox="0 0 48 49" fill="none" xmlns="http://www.w3.org/2000/svg">
<mask id="mask0_2379_16971" style="mask-type:alpha" maskUnits="userSpaceOnUse" x="0" y="0" width="48" height="49">
<rect y="0.600098" width="48" height="48" fill="#D9D9D9"/>
</mask>
<g mask="url(#mask0_2379_16971)">
<path d="M10 34.3501V15.5539C10 13.0616 11.1154 11.429 13.3462 10.6559C15.5769 9.8828 18.9256 9.47573 23.3923 9.4347L24.9154 6.28855H14.3038V4.6001H34.3961V6.28855H26.8577L25.3077 9.4347C29.241 9.47573 32.4564 9.89466 34.9539 10.6915C37.4513 11.4883 38.7 13.1091 38.7 15.5539V34.3501C38.7 36.014 38.1211 37.4249 36.9633 38.5826C35.8055 39.7404 34.3946 40.3193 32.7307 40.3193L35.7808 43.3694V44.4693H34.1192L29.9692 40.3193H18.7808L14.6558 44.4693H12.9192V43.3694L15.9693 40.3193C14.3054 40.3193 12.8945 39.7404 11.7367 38.5826C10.5789 37.4249 10 36.014 10 34.3501ZM24.4202 35.3155C25.0093 35.3155 25.5231 35.0922 25.9616 34.6457C26.4 34.1991 26.6193 33.6618 26.6193 33.0338C26.6193 32.4447 26.401 31.9309 25.9645 31.4924C25.528 31.054 25.0068 30.8347 24.401 30.8347C23.7952 30.8347 23.2667 31.053 22.8154 31.4895C22.3641 31.926 22.1385 32.4471 22.1385 33.0529C22.1385 33.6587 22.3617 34.1873 22.8083 34.6386C23.2548 35.0899 23.7921 35.3155 24.4202 35.3155ZM11.7884 25.8655H36.9V16.3655H11.7884V25.8655ZM15.8231 38.4463H32.8856C34.0157 38.4463 34.9673 38.0531 35.7404 37.2668C36.5135 36.4804 36.9 35.5081 36.9 34.3501V27.6539H11.7884V34.3736C11.7884 35.5015 12.1733 36.4623 12.943 37.2559C13.7127 38.0495 14.6727 38.4463 15.8231 38.4463ZM24.473 11.2232C20.6782 11.2232 17.666 11.4822 15.4365 12.0001C13.207 12.5181 11.9513 13.377 11.6692 14.577H36.8461C36.5385 13.5668 35.3199 12.7552 33.1904 12.1424C31.0609 11.5296 28.1551 11.2232 24.473 11.2232Z" fill="#1C1B1F"/>
</g>
</svg>
