<svg width="46" height="44" viewBox="0 0 46 44" fill="none" xmlns="http://www.w3.org/2000/svg">
<g id="Social Media / Instagram">
<g id="Group 15">
<path id="Vector" d="M23.0001 12.5716C19.3697 12.5716 14.6577 13.4705 14.6577 13.4705L14.6458 13.4839C12.9924 13.7452 11.7256 15.1493 11.7256 16.8569V21.9993V22.001V27.1417V27.1434C11.7272 27.9589 12.0229 28.7472 12.5597 29.3666C13.0965 29.986 13.8391 30.3961 14.6543 30.5231L14.6577 30.5281C14.6577 30.5281 19.3697 31.4287 23.0001 31.4287C26.6305 31.4287 31.3425 30.5281 31.3425 30.5281L31.3442 30.5264C32.1602 30.3997 32.9037 29.9893 33.4409 29.3691C33.9781 28.749 34.2737 27.9597 34.2746 27.1434V27.1417V22.001V21.9993V16.8569C34.2734 16.0411 33.9778 15.2524 33.441 14.6326C32.9042 14.0129 32.1613 13.6026 31.3459 13.4755L31.3425 13.4705C31.3425 13.4705 26.6305 12.5716 23.0001 12.5716ZM20.3983 18.0555L27.3364 21.9993L20.3983 25.9431V18.0555Z" fill="black"/>
</g>
</g>
</svg>
